<svg width="120" height="26" viewBox="0 0 120 26" fill="none" xmlns="http://www.w3.org/2000/svg">
<path d="M15.7747 2.23275C15.7747 1.64059 16.0099 1.07268 16.4286 0.653957C16.8473 0.235235 17.4152 0 18.0074 0C18.5996 0 19.1675 0.235235 19.5862 0.653957C20.0049 1.07268 20.2402 1.64059 20.2402 2.23275C20.2402 2.82491 20.0049 3.39282 19.5862 3.81154C19.1675 4.23026 18.5996 4.4655 18.0074 4.4655C17.4152 4.4655 16.8473 4.23026 16.4286 3.81154C16.0099 3.39282 15.7747 2.82491 15.7747 2.23275ZM15.9408 6.50093H20.0948V21.1021H15.9408V6.50093Z" fill="#360F4F"/>
<path d="M37.749 13.8223C37.749 18.3085 34.9244 21.4759 31.03 21.4759C30.0832 21.491 29.1462 21.2815 28.296 20.8645C27.4458 20.4475 26.7065 19.8349 26.1388 19.077V25.9933H21.9848V6.53208H26.1388V8.60905C26.7093 7.85557 27.4496 7.24746 28.2996 6.83421C29.1496 6.42096 30.0851 6.21425 31.03 6.23091C34.9244 6.18937 37.749 9.37753 37.749 13.8223ZM33.7405 13.8223C33.7793 13.2879 33.7068 12.7512 33.5276 12.2463C33.3485 11.7413 33.0665 11.279 32.6995 10.8886C32.3325 10.4982 31.8885 10.1882 31.3956 9.97814C30.9027 9.76809 30.3715 9.66259 29.8358 9.66831C28.8763 9.67304 27.9558 10.0485 27.2668 10.7163C26.5778 11.384 26.1736 12.2922 26.1388 13.2511V14.383C26.1683 15.3465 26.5698 16.2611 27.2591 16.9349C27.9484 17.6087 28.8719 17.9894 29.8358 17.997C30.3734 18.0029 30.9064 17.8969 31.4009 17.6856C31.8953 17.4743 32.3404 17.1624 32.7076 16.7697C33.0749 16.377 33.3565 15.9121 33.5343 15.4047C33.7121 14.8972 33.7823 14.3583 33.7405 13.8223Z" fill="#360F4F"/>
<path d="M38.4241 19.2743L40.1999 16.4185C41.612 17.4686 43.3211 18.0431 45.0808 18.0593C46.192 18.0593 46.9812 17.6024 46.9812 16.9585C46.9812 16.0446 45.9427 15.7643 44.4058 15.3696C41.4149 14.6323 39.0991 13.8223 39.0679 10.9353C39.0368 8.04829 41.3318 6.18939 44.7796 6.18939C46.8315 6.22396 48.8296 6.85152 50.5328 7.99636L48.809 10.9353C47.5823 10.1516 46.1714 9.70397 44.7173 9.63717C43.6788 9.63717 42.9934 10.0006 42.9934 10.5095C42.9934 11.2988 43.5854 11.548 45.5585 12.0672C48.082 12.7111 50.8859 13.5315 50.8859 16.7508C50.8859 19.6378 48.5389 21.4759 44.9458 21.4759C42.5897 21.4745 40.299 20.7012 38.4241 19.2743Z" fill="#360F4F"/>
<path d="M68.0937 13.8223C68.0937 18.3086 65.269 21.476 61.3643 21.476C60.4187 21.4919 59.483 21.2827 58.6343 20.8656C57.7856 20.4485 57.0483 19.8354 56.4834 19.077V25.9934H52.3294V6.53211H56.4834V8.60909C57.0511 7.85518 57.7895 7.24658 58.6379 6.8332C59.4863 6.41982 60.4206 6.21342 61.3643 6.23095C65.269 6.18941 68.0937 9.37757 68.0937 13.8223ZM64.0747 13.8223C64.1134 13.2888 64.0413 12.753 63.8627 12.2488C63.6841 11.7445 63.4031 11.2827 63.0372 10.8925C62.6714 10.5022 62.2286 10.192 61.737 9.98132C61.2453 9.77064 60.7153 9.66407 60.1804 9.66834C59.2201 9.67049 58.2982 10.0451 57.6086 10.7134C56.919 11.3817 56.5156 12.2914 56.4834 13.2511V14.3831C56.5105 15.3564 56.9184 16.2802 57.6195 16.956C58.3205 17.6318 59.2586 18.0056 60.2323 17.997C60.7647 17.9943 61.2909 17.8819 61.7779 17.6668C62.265 17.4517 62.7024 17.1385 63.063 16.7467C63.4236 16.355 63.6995 15.8931 63.8736 15.3899C64.0476 14.8868 64.1161 14.3531 64.0747 13.8223Z" fill="#360F4F"/>
<path d="M82.6948 12.4099V21.1332H78.7174V19.669C78.1635 20.2495 77.4958 20.7096 76.756 21.0205C76.0163 21.3315 75.2204 21.4865 74.4181 21.4759C71.3026 21.4759 68.9141 19.6067 68.9141 16.8131C68.9141 14.0196 71.5934 11.953 74.9892 11.953C76.2662 11.9727 77.5291 12.2225 78.7174 12.6903V12.4099C78.7174 10.8522 77.7516 9.49178 75.3527 9.49178C74.0248 9.533 72.7257 9.88892 71.5622 10.5303L70.181 7.79905C72.059 6.7832 74.1526 6.23129 76.2873 6.18939C80.0986 6.18939 82.6948 8.5883 82.6948 12.4099ZM78.7174 16.5639V15.1723C77.7178 14.8139 76.6638 14.6312 75.6019 14.6323C74.0961 14.6323 72.9122 15.515 72.9122 16.7093C72.9122 17.9035 73.9507 18.6305 75.3735 18.6305C76.9312 18.6201 78.4266 17.8828 78.7174 16.5327V16.5639Z" fill="#360F4F"/>
<path d="M84.1176 13.8223C84.1932 11.7589 85.0713 9.80665 86.5648 8.38103C88.0583 6.9554 90.0493 6.16904 92.1139 6.18937C93.1902 6.17672 94.2571 6.39124 95.2449 6.81892C96.2327 7.24659 97.1191 7.87781 97.8464 8.67136L95.1048 11.0183C94.7205 10.5982 94.2539 10.2616 93.734 10.0293C93.2142 9.7971 92.6521 9.67421 92.0828 9.66831C91.0121 9.70624 89.9991 10.1626 89.2612 10.9393C88.5233 11.716 88.1195 12.7511 88.1365 13.8223C88.122 14.903 88.5293 15.9468 89.272 16.7321C90.0146 17.5174 91.0341 17.9823 92.1139 18.0281C92.702 18.0172 93.2817 17.8863 93.8174 17.6434C94.3531 17.4006 94.8336 17.0509 95.2294 16.6158L97.9606 18.9316C97.2282 19.7557 96.3269 20.4122 95.318 20.8567C94.3091 21.3011 93.2163 21.5229 92.1139 21.5071C90.0406 21.527 88.0421 20.7335 86.5472 19.2968C85.0522 17.8601 84.18 15.8947 84.1176 13.8223Z" fill="#360F4F"/>
<path d="M109.425 16.5327L112.053 19.212C110.413 20.6761 108.29 21.4824 106.092 21.4759C105.071 21.5072 104.055 21.3303 103.105 20.956C102.155 20.5816 101.291 20.0178 100.567 19.2987C99.8416 18.5796 99.2708 17.7204 98.8888 16.7735C98.5068 15.8266 98.3217 14.8119 98.3448 13.7911C98.3121 12.791 98.4836 11.7948 98.8488 10.8632C99.214 9.93162 99.7652 9.08426 100.469 8.37284C101.172 7.66143 102.014 7.10091 102.941 6.72549C103.869 6.35008 104.863 6.16765 105.863 6.18935C110.443 6.18935 113.133 9.66829 113.133 15.1723H102.582C102.783 15.9395 103.234 16.6176 103.865 17.0992C104.495 17.5808 105.268 17.8382 106.061 17.8308C107.299 17.8042 108.49 17.3449 109.425 16.5327ZM102.644 12.2126H109.166C109.01 11.5126 108.612 10.8902 108.042 10.4551C107.472 10.02 106.767 9.80018 106.05 9.83445C105.304 9.81994 104.572 10.0423 103.96 10.4696C103.348 10.8968 102.888 11.507 102.644 12.2126Z" fill="#360F4F"/>
<path d="M114.961 18.8486C114.982 18.1691 115.27 17.5252 115.761 17.0553C116.252 16.5854 116.908 16.3269 117.588 16.3354C118.241 16.377 118.854 16.6658 119.303 17.1433C119.751 17.6207 120 18.2509 120 18.9057C120 19.5604 119.751 20.1906 119.303 20.668C118.854 21.1455 118.241 21.4344 117.588 21.4759C117.243 21.4773 116.9 21.4103 116.581 21.2787C116.262 21.1472 115.971 20.9537 115.727 20.7094C115.483 20.4652 115.289 20.175 115.158 19.8556C115.026 19.5362 114.959 19.194 114.961 18.8486Z" fill="#EA3788"/>
<path d="M14.3311 21.1021H9.93833C9.94015 20.1633 9.71549 19.2379 9.28341 18.4045C8.85133 17.5711 8.22458 16.8542 7.45634 16.3146L4.15395 21.1021H0V1.37079H4.15395V14.7154L4.77704 13.76L6.51132 11.1326C7.52211 9.58177 8.53291 8.03442 9.5437 6.49053H14.2896C12.8565 8.56751 11.4026 10.6445 9.96949 12.7215C11.316 13.6655 12.4154 14.9199 13.1746 16.3787C13.9338 17.8374 14.3305 19.4576 14.3311 21.1021Z" fill="#360F4F"/>
</svg>
