<svg width="268" height="248" viewBox="0 0 268 248" fill="none" xmlns="http://www.w3.org/2000/svg">
<rect x="85.9967" width="125.285" height="247.439" rx="15.2786" fill="#C4C4C4"/>
<path d="M126.455 7.85759C126.455 6.65214 125.478 5.67493 124.272 5.67493H102.944C96.7184 5.67493 91.6716 11.1886 91.6716 17.9901V229.812C91.6716 236.614 96.7184 242.127 102.944 242.127H194.733C200.959 242.127 206.006 236.614 206.006 229.812V17.9902C206.006 11.1886 200.959 5.67493 194.733 5.67493H173.405C172.2 5.67493 171.222 6.65214 171.222 7.85758V12.9926C171.222 14.198 170.245 15.1752 169.04 15.1752H128.638C127.432 15.1752 126.455 14.198 126.455 12.9926V7.85759Z" fill="white"/>
<circle cx="144.928" cy="219.575" r="1.74613" fill="#360F4F"/>
<circle cx="152.349" cy="219.575" r="1.74613" fill="#EA3788"/>
<circle cx="152.349" cy="226.56" r="1.74613" fill="#0E79B2"/>
<circle cx="144.928" cy="226.56" r="1.74613" fill="#B0228C"/>
<rect x="132.269" y="47.1454" width="134.888" height="56.3126" rx="6.54797" fill="#360F4F" fill-opacity="0.7"/>
<g clip-path="url(#clip0)">
<g clip-path="url(#clip1)">
<g clip-path="url(#clip2)">
<g clip-path="url(#clip3)">
<path d="M144.935 60.0966V59.71H142.859V62.5353H143.278V61.3057H144.775V60.9191H143.278V60.0966H144.935ZM146.359 62.2227C145.993 62.2227 145.734 61.9678 145.68 61.6141H147.354C147.354 60.8533 146.98 60.3598 146.33 60.3598C145.742 60.3598 145.269 60.8286 145.269 61.466C145.269 62.1199 145.771 62.5846 146.363 62.5846C146.663 62.5846 147.033 62.4571 147.223 62.2556L146.968 61.9924C146.84 62.124 146.581 62.2227 146.359 62.2227ZM146.347 60.7217C146.713 60.7217 146.914 60.9602 146.959 61.2892H145.685C145.75 60.9438 146.018 60.7217 146.347 60.7217ZM149.006 60.3598C148.677 60.3598 148.414 60.5161 148.25 60.7752V59.6607H147.847V62.5353H148.25V62.1652C148.414 62.4284 148.677 62.5846 149.006 62.5846C149.566 62.5846 149.985 62.124 149.985 61.4702C149.985 60.8204 149.566 60.3598 149.006 60.3598ZM148.908 62.231C148.525 62.231 148.25 61.9143 148.25 61.4702C148.25 61.026 148.525 60.7135 148.908 60.7135C149.298 60.7135 149.574 61.026 149.574 61.4702C149.574 61.9143 149.298 62.231 148.908 62.231ZM151.551 62.5353H153.562V62.1487H152.209L152.871 61.5894C153.356 61.1946 153.537 60.8944 153.537 60.5161C153.537 60.002 153.117 59.6607 152.591 59.6607C152.143 59.6607 151.81 59.8663 151.563 60.2076L151.843 60.4544C152.04 60.1994 152.266 60.0349 152.575 60.0349C152.854 60.0349 153.109 60.2159 153.109 60.5243C153.109 60.7793 152.965 61.0219 152.587 61.3386L151.551 62.1939V62.5353ZM155.016 62.5846C155.629 62.5846 156.036 62.2392 156.036 61.7621C156.036 61.3673 155.728 61.1535 155.432 61.0877C155.728 60.9972 155.974 60.7793 155.974 60.4297C155.974 59.9773 155.575 59.6607 155.004 59.6607C154.543 59.6607 154.222 59.8745 154.005 60.1583L154.264 60.4133C154.461 60.183 154.679 60.0349 154.975 60.0349C155.304 60.0349 155.551 60.2241 155.551 60.4873C155.551 60.771 155.3 60.9273 154.942 60.9273L154.634 60.9232V61.2933H154.942C155.366 61.2892 155.608 61.4414 155.608 61.7334C155.608 62.0171 155.374 62.2104 155.008 62.2104C154.683 62.2104 154.408 62.0582 154.218 61.8279L153.951 62.1035C154.169 62.3749 154.535 62.5846 155.016 62.5846ZM156.747 63.0987C157.01 62.7985 157.104 62.6216 157.104 62.4284C157.104 62.2022 156.989 62.0377 156.808 62.0377C156.652 62.0377 156.533 62.1652 156.533 62.3091C156.533 62.4613 156.652 62.5846 156.8 62.5846C156.767 62.7121 156.693 62.8437 156.574 62.9671L156.747 63.0987ZM158.743 62.5353H160.754V62.1487H159.401L160.063 61.5894C160.549 61.1946 160.73 60.8944 160.73 60.5161C160.73 60.002 160.31 59.6607 159.784 59.6607C159.336 59.6607 159.002 59.8663 158.756 60.2076L159.035 60.4544C159.233 60.1994 159.459 60.0349 159.767 60.0349C160.047 60.0349 160.302 60.2159 160.302 60.5243C160.302 60.7793 160.158 61.0219 159.78 61.3386L158.743 62.1939V62.5353ZM162.431 62.5846C163.134 62.5846 163.636 61.9801 163.636 61.1206C163.636 60.2652 163.134 59.6607 162.431 59.6607C161.72 59.6607 161.222 60.2652 161.222 61.1206C161.222 61.9801 161.72 62.5846 162.431 62.5846ZM162.431 62.2022C161.97 62.2022 161.646 61.7539 161.646 61.1206C161.646 60.4873 161.97 60.0431 162.431 60.0431C162.887 60.0431 163.208 60.4873 163.208 61.1206C163.208 61.7539 162.887 62.2022 162.431 62.2022ZM164.053 62.5353H166.064V62.1487H164.711L165.373 61.5894C165.858 61.1946 166.039 60.8944 166.039 60.5161C166.039 60.002 165.619 59.6607 165.093 59.6607C164.645 59.6607 164.312 59.8663 164.065 60.2076L164.345 60.4544C164.542 60.1994 164.768 60.0349 165.077 60.0349C165.356 60.0349 165.611 60.2159 165.611 60.5243C165.611 60.7793 165.467 61.0219 165.089 61.3386L164.053 62.1939V62.5353ZM167.74 62.5846C168.443 62.5846 168.945 61.9801 168.945 61.1206C168.945 60.2652 168.443 59.6607 167.74 59.6607C167.029 59.6607 166.531 60.2652 166.531 61.1206C166.531 61.9801 167.029 62.5846 167.74 62.5846ZM167.74 62.2022C167.28 62.2022 166.955 61.7539 166.955 61.1206C166.955 60.4873 167.28 60.0431 167.74 60.0431C168.197 60.0431 168.518 60.4873 168.518 61.1206C168.518 61.7539 168.197 62.2022 167.74 62.2022Z" fill="white"/>
<path d="M175.404 62.5353H175.823V59.71H175.486L174.742 60.2159L174.914 60.5161L175.404 60.2035V62.5353ZM176.383 62.5353H178.393V62.1487H177.041L177.703 61.5894C178.188 61.1946 178.369 60.8944 178.369 60.5161C178.369 60.002 177.949 59.6607 177.423 59.6607C176.975 59.6607 176.642 59.8663 176.395 60.2076L176.674 60.4544C176.872 60.1994 177.098 60.0349 177.407 60.0349C177.686 60.0349 177.941 60.2159 177.941 60.5243C177.941 60.7793 177.797 61.0219 177.419 61.3386L176.383 62.1939V62.5353ZM179.19 60.952C179.338 60.952 179.457 60.8245 179.457 60.6723C179.457 60.5325 179.338 60.405 179.19 60.405C179.034 60.405 178.915 60.5325 178.915 60.6723C178.915 60.8245 179.034 60.952 179.19 60.952ZM179.19 62.5846C179.338 62.5846 179.457 62.4571 179.457 62.305C179.457 62.1652 179.338 62.0377 179.19 62.0377C179.034 62.0377 178.915 62.1652 178.915 62.305C178.915 62.4571 179.034 62.5846 179.19 62.5846ZM181.159 62.5846C181.862 62.5846 182.363 61.9801 182.363 61.1206C182.363 60.2652 181.862 59.6607 181.159 59.6607C180.447 59.6607 179.949 60.2652 179.949 61.1206C179.949 61.9801 180.447 62.5846 181.159 62.5846ZM181.159 62.2022C180.698 62.2022 180.373 61.7539 180.373 61.1206C180.373 60.4873 180.698 60.0431 181.159 60.0431C181.615 60.0431 181.936 60.4873 181.936 61.1206C181.936 61.7539 181.615 62.2022 181.159 62.2022ZM184.018 62.5846C184.721 62.5846 185.223 61.9801 185.223 61.1206C185.223 60.2652 184.721 59.6607 184.018 59.6607C183.306 59.6607 182.809 60.2652 182.809 61.1206C182.809 61.9801 183.306 62.5846 184.018 62.5846ZM184.018 62.2022C183.557 62.2022 183.232 61.7539 183.232 61.1206C183.232 60.4873 183.557 60.0431 184.018 60.0431C184.474 60.0431 184.795 60.4873 184.795 61.1206C184.795 61.7539 184.474 62.2022 184.018 62.2022ZM186.931 62.5353H187.347V61.5524H188.12C188.716 61.5524 189.169 61.1699 189.169 60.6312C189.169 60.0925 188.716 59.71 188.12 59.71H186.931V62.5353ZM187.347 61.1658V60.0966H188.062C188.469 60.0966 188.745 60.2981 188.745 60.6312C188.745 60.9643 188.469 61.1658 188.062 61.1658H187.347ZM189.651 62.5353H190.067V60.5243L191.058 62.3708L192.049 60.5243V62.5353H192.464V59.71H192.049L191.058 61.5565L190.067 59.71H189.651V62.5353Z" fill="white"/>
<g clip-path="url(#clip4)">
<path d="M203.436 60.8887C203.966 60.8887 204.392 60.4604 204.392 59.9298C204.392 59.3992 203.966 58.9708 203.436 58.9708C202.905 58.9708 202.477 59.3992 202.477 59.9298C202.477 60.4604 202.905 60.8887 203.436 60.8887ZM200.879 60.8887C201.409 60.8887 201.834 60.4604 201.834 59.9298C201.834 59.3992 201.409 58.9708 200.879 58.9708C200.348 58.9708 199.92 59.3992 199.92 59.9298C199.92 60.4604 200.348 60.8887 200.879 60.8887ZM200.879 61.528C200.134 61.528 198.641 61.902 198.641 62.6468V63.4459H203.116V62.6468C203.116 61.902 201.623 61.528 200.879 61.528ZM203.436 61.528C203.343 61.528 203.238 61.5344 203.126 61.544C203.497 61.8125 203.755 62.1737 203.755 62.6468V63.4459H205.673V62.6468C205.673 61.902 204.181 61.528 203.436 61.528Z" fill="white"/>
</g>
<path d="M208.28 62.5234H208.699V59.6981H208.362L207.618 60.204L207.791 60.5042L208.28 60.1916V62.5234Z" fill="white"/>
</g>
<path d="M143.644 70.5784H144.059V68.1397H144.989V67.7531H142.719V68.1397H143.644V70.5784ZM146.456 70.6277C147.061 70.6277 147.571 70.1178 147.571 69.5132C147.571 68.9087 147.061 68.4029 146.456 68.4029C145.848 68.4029 145.333 68.9087 145.333 69.5132C145.333 70.1178 145.848 70.6277 146.456 70.6277ZM146.456 70.274C146.065 70.274 145.741 69.9286 145.741 69.5132C145.741 69.102 146.065 68.7566 146.456 68.7566C146.839 68.7566 147.164 69.102 147.164 69.5132C147.164 69.9286 146.839 70.274 146.456 70.274ZM149.285 70.5784H150.26C151.173 70.5784 151.823 69.9903 151.823 69.1637C151.823 68.3371 151.173 67.7531 150.26 67.7531H149.285V70.5784ZM149.701 70.2V68.1315H150.285C150.939 68.1315 151.395 68.5592 151.395 69.1637C151.395 69.7723 150.939 70.2 150.285 70.2H149.701ZM153.364 70.6277C153.968 70.6277 154.478 70.1178 154.478 69.5132C154.478 68.9087 153.968 68.4029 153.364 68.4029C152.755 68.4029 152.241 68.9087 152.241 69.5132C152.241 70.1178 152.755 70.6277 153.364 70.6277ZM153.364 70.274C152.973 70.274 152.648 69.9286 152.648 69.5132C152.648 69.102 152.973 68.7566 153.364 68.7566C153.746 68.7566 154.071 69.102 154.071 69.5132C154.071 69.9286 153.746 70.274 153.364 70.274ZM157.332 68.4029C157.011 68.4029 156.739 68.5674 156.641 68.8306C156.517 68.5674 156.266 68.4029 155.958 68.4029C155.687 68.4029 155.465 68.5386 155.358 68.7483V68.4522H154.951V70.5784H155.358V69.25C155.358 68.9581 155.571 68.7566 155.876 68.7566C156.143 68.7566 156.328 68.9745 156.328 69.2871V70.5784H156.727V69.25C156.727 68.9581 156.941 68.7566 157.245 68.7566C157.513 68.7566 157.698 68.9745 157.698 69.2871V70.5784H158.097V69.2254C158.097 68.7442 157.776 68.4029 157.332 68.4029ZM158.883 68.0986C159.015 68.0986 159.126 67.9834 159.126 67.8518C159.126 67.7243 159.015 67.6092 158.883 67.6092C158.743 67.6092 158.636 67.7243 158.636 67.8518C158.636 67.9834 158.743 68.0986 158.883 68.0986ZM158.677 70.5784H159.085V68.4522H158.677V70.5784ZM160.755 68.4029C160.467 68.4029 160.208 68.5509 160.081 68.7607V68.4522H159.673V70.5784H160.081V69.2007C160.114 68.9498 160.368 68.7566 160.665 68.7566C160.952 68.7566 161.154 68.9786 161.154 69.2953V70.5784H161.553V69.2254C161.553 68.7442 161.224 68.4029 160.755 68.4029ZM163.143 70.6277C163.747 70.6277 164.257 70.1178 164.257 69.5132C164.257 68.9087 163.747 68.4029 163.143 68.4029C162.534 68.4029 162.02 68.9087 162.02 69.5132C162.02 70.1178 162.534 70.6277 163.143 70.6277ZM163.143 70.274C162.752 70.274 162.427 69.9286 162.427 69.5132C162.427 69.102 162.752 68.7566 163.143 68.7566C163.525 68.7566 163.85 69.102 163.85 69.5132C163.85 69.9286 163.525 70.274 163.143 70.274ZM165.503 70.6277C165.967 70.6277 166.309 70.3727 166.309 69.9697C166.309 69.5461 165.935 69.431 165.585 69.3282C165.227 69.2171 165.096 69.1678 165.096 69.0033C165.096 68.8429 165.26 68.7524 165.47 68.7524C165.655 68.7524 165.869 68.8224 166.074 68.9498L166.255 68.6496C166.025 68.4975 165.745 68.4029 165.47 68.4029C165.017 68.4029 164.693 68.6579 164.697 69.0485C164.697 69.394 164.939 69.5338 165.429 69.6695C165.692 69.7435 165.91 69.8052 165.91 70.0026C165.91 70.1671 165.745 70.2782 165.507 70.2782C165.256 70.2782 165.013 70.1836 164.787 70.0191L164.594 70.3111C164.849 70.5167 165.19 70.6277 165.503 70.6277ZM167.971 70.5784H168.386V69.5955H169.159C169.756 69.5955 170.208 69.213 170.208 68.6743C170.208 68.1356 169.756 67.7531 169.159 67.7531H167.971V70.5784ZM168.386 69.2089V68.1397H169.102C169.509 68.1397 169.785 68.3412 169.785 68.6743C169.785 69.0074 169.509 69.2089 169.102 69.2089H168.386ZM170.831 68.0986C170.962 68.0986 171.073 67.9834 171.073 67.8518C171.073 67.7243 170.962 67.6092 170.831 67.6092C170.691 67.6092 170.584 67.7243 170.584 67.8518C170.584 67.9834 170.691 68.0986 170.831 68.0986ZM170.625 70.5784H171.032V68.4522H170.625V70.5784ZM171.531 70.5784H173.266V70.2124H172.065L173.258 68.7566V68.4522H171.555V68.8182H172.723L171.531 70.274V70.5784ZM173.667 70.5784H175.403V70.2124H174.202L175.395 68.7566V68.4522H173.692V68.8182H174.86L173.667 70.274V70.5784ZM176.787 68.4029C176.552 68.4029 176.285 68.4646 175.981 68.6167L176.129 68.9169C176.314 68.8224 176.519 68.7401 176.729 68.7401C177.153 68.7401 177.276 69.0239 177.276 69.2912V69.357C177.071 69.2871 176.844 69.2418 176.635 69.2418C176.166 69.2418 175.783 69.5256 175.783 69.9492C175.783 70.3645 176.116 70.6277 176.569 70.6277C176.828 70.6277 177.12 70.5085 177.276 70.2864V70.5784H177.675V69.2912C177.675 68.7648 177.358 68.4029 176.787 68.4029ZM176.647 70.3069C176.38 70.3069 176.174 70.1671 176.174 69.9368C176.174 69.7065 176.413 69.5461 176.696 69.5461C176.906 69.5461 177.103 69.5749 177.276 69.6284V69.9122C177.206 70.1753 176.91 70.3069 176.647 70.3069ZM178.469 71.1418C178.733 70.8416 178.827 70.6647 178.827 70.4714C178.827 70.2453 178.712 70.0808 178.531 70.0808C178.375 70.0808 178.256 70.2082 178.256 70.3522C178.256 70.5043 178.375 70.6277 178.523 70.6277C178.49 70.7552 178.416 70.8868 178.297 71.0102L178.469 71.1418ZM180.631 70.5784H181.046V68.4358L182.671 70.5784H183.086V67.7531H182.671V69.8957L181.046 67.7531H180.631V70.5784ZM184.749 70.6277C185.354 70.6277 185.864 70.1178 185.864 69.5132C185.864 68.9087 185.354 68.4029 184.749 68.4029C184.141 68.4029 183.627 68.9087 183.627 69.5132C183.627 70.1178 184.141 70.6277 184.749 70.6277ZM184.749 70.274C184.359 70.274 184.034 69.9286 184.034 69.5132C184.034 69.102 184.359 68.7566 184.749 68.7566C185.132 68.7566 185.457 69.102 185.457 69.5132C185.457 69.9286 185.132 70.274 184.749 70.274ZM186.595 70.6277C186.743 70.6277 186.862 70.5002 186.862 70.3481C186.862 70.2082 186.743 70.0808 186.595 70.0808C186.439 70.0808 186.32 70.2082 186.32 70.3481C186.32 70.5002 186.439 70.6277 186.595 70.6277ZM188.547 68.7936C188.235 68.7936 187.951 68.9334 187.778 69.1678C187.79 68.5427 188.115 68.078 188.547 68.078C188.806 68.078 188.983 68.189 189.16 68.3494L189.374 68.0287C189.156 67.8354 188.897 67.7038 188.551 67.7038C187.86 67.7038 187.354 68.3535 187.354 69.2089C187.354 70.015 187.688 70.6277 188.473 70.6277C189.069 70.6277 189.497 70.2206 189.497 69.6777C189.497 69.1185 189.065 68.7936 188.547 68.7936ZM188.457 70.274C188.086 70.274 187.885 70.0026 187.811 69.5996C187.885 69.3241 188.136 69.1431 188.448 69.1431C188.794 69.1431 189.069 69.3529 189.069 69.6983C189.069 69.9821 188.839 70.274 188.457 70.274ZM193.433 70.5784H193.893L192.68 67.7531H192.22L191.006 70.5784H191.467L191.714 70.0026H193.186L193.433 70.5784ZM191.874 69.6284L192.45 68.2877L193.026 69.6284H191.874ZM195.933 67.7038V68.8182C195.768 68.5592 195.505 68.4029 195.176 68.4029C194.617 68.4029 194.197 68.8635 194.197 69.5132C194.197 70.1671 194.617 70.6277 195.176 70.6277C195.505 70.6277 195.768 70.4714 195.933 70.2082V70.5784H196.336V67.7038H195.933ZM195.275 70.274C194.884 70.274 194.608 69.9574 194.608 69.5132C194.608 69.0691 194.884 68.7566 195.275 68.7566C195.657 68.7566 195.933 69.0691 195.933 69.5132C195.933 69.9574 195.657 70.274 195.275 70.274ZM197.921 70.2658C197.555 70.2658 197.296 70.0109 197.243 69.6572H198.916C198.916 68.8964 198.542 68.4029 197.892 68.4029C197.304 68.4029 196.831 68.8717 196.831 69.5091C196.831 70.163 197.333 70.6277 197.925 70.6277C198.226 70.6277 198.596 70.5002 198.785 70.2987L198.53 70.0355C198.402 70.1671 198.143 70.2658 197.921 70.2658ZM197.909 68.7648C198.275 68.7648 198.476 69.0033 198.522 69.3323H197.247C197.313 68.9869 197.58 68.7648 197.909 68.7648ZM200.47 68.4029C200.182 68.4029 199.923 68.5509 199.795 68.7607V68.4522H199.388V70.5784H199.795V69.2007C199.828 68.9498 200.083 68.7566 200.379 68.7566C200.667 68.7566 200.869 68.9786 200.869 69.2953V70.5784H201.268V69.2254C201.268 68.7442 200.939 68.4029 200.47 68.4029ZM203.314 68.4522V69.8299C203.281 70.0808 203.026 70.274 202.73 70.274C202.442 70.274 202.241 70.052 202.241 69.7353V68.4522H201.842V69.8052C201.842 70.2864 202.171 70.6277 202.64 70.6277C202.928 70.6277 203.187 70.4797 203.314 70.2699V70.5784H203.721V68.4522H203.314ZM205.928 68.4522V68.7936C205.768 68.555 205.496 68.4029 205.176 68.4029C204.616 68.4029 204.209 68.8182 204.209 69.4104C204.209 70.0026 204.616 70.4221 205.176 70.4221C205.496 70.4221 205.76 70.2782 205.928 70.0355V70.344C205.928 70.7141 205.653 70.932 205.196 70.932C204.941 70.932 204.686 70.8457 204.53 70.6976L204.37 71.002C204.571 71.1664 204.9 71.2857 205.258 71.2857C205.887 71.2857 206.335 70.8991 206.335 70.3522V68.4522H205.928ZM205.278 70.0684C204.9 70.0684 204.633 69.797 204.633 69.4104C204.633 69.028 204.9 68.7566 205.278 68.7566C205.657 68.7566 205.928 69.028 205.928 69.4104C205.928 69.797 205.657 70.0684 205.278 70.0684ZM207.835 68.4029C207.601 68.4029 207.333 68.4646 207.029 68.6167L207.177 68.9169C207.362 68.8224 207.568 68.7401 207.777 68.7401C208.201 68.7401 208.324 69.0239 208.324 69.2912V69.357C208.119 69.2871 207.892 69.2418 207.683 69.2418C207.214 69.2418 206.831 69.5256 206.831 69.9492C206.831 70.3645 207.165 70.6277 207.617 70.6277C207.876 70.6277 208.168 70.5085 208.324 70.2864V70.5784H208.723V69.2912C208.723 68.7648 208.407 68.4029 207.835 68.4029ZM207.695 70.3069C207.428 70.3069 207.222 70.1671 207.222 69.9368C207.222 69.7065 207.461 69.5461 207.744 69.5461C207.954 69.5461 208.152 69.5749 208.324 69.6284V69.9122C208.254 70.1753 207.958 70.3069 207.695 70.3069ZM143.615 75.6277C144.08 75.6277 144.421 75.3727 144.421 74.9697C144.421 74.5461 144.047 74.431 143.697 74.3282C143.34 74.2171 143.208 74.1678 143.208 74.0033C143.208 73.8429 143.373 73.7524 143.582 73.7524C143.767 73.7524 143.981 73.8224 144.187 73.9498L144.368 73.6496C144.138 73.4975 143.858 73.4029 143.582 73.4029C143.13 73.4029 142.805 73.6579 142.809 74.0485C142.809 74.394 143.052 74.5338 143.541 74.6695C143.804 74.7435 144.022 74.8052 144.022 75.0026C144.022 75.1671 143.858 75.2782 143.619 75.2782C143.368 75.2782 143.126 75.1836 142.9 75.0191L142.706 75.3111C142.961 75.5167 143.303 75.6277 143.615 75.6277ZM145.89 75.1959C145.844 75.2411 145.762 75.274 145.672 75.274C145.552 75.274 145.454 75.1671 145.454 75.0191V73.7977H145.955V73.4522H145.454V72.8683H145.055V73.4522H144.734V73.7977H145.055V75.0479C145.055 75.3892 145.285 75.6277 145.614 75.6277C145.766 75.6277 145.923 75.5701 146.038 75.4756L145.89 75.1959ZM146.88 73.8594V73.4522H146.473V75.5784H146.88V74.3693C146.917 73.9992 147.23 73.7566 147.67 73.7566V73.4029C147.304 73.4029 147.016 73.5797 146.88 73.8594ZM149.042 75.2658C148.676 75.2658 148.417 75.0109 148.363 74.6572H150.037C150.037 73.8964 149.663 73.4029 149.013 73.4029C148.425 73.4029 147.952 73.8717 147.952 74.5091C147.952 75.163 148.454 75.6277 149.046 75.6277C149.346 75.6277 149.716 75.5002 149.905 75.2987L149.65 75.0355C149.523 75.1671 149.264 75.2658 149.042 75.2658ZM149.029 73.7648C149.395 73.7648 149.597 74.0033 149.642 74.3323H148.367C148.433 73.9869 148.7 73.7648 149.029 73.7648ZM151.483 75.2658C151.117 75.2658 150.858 75.0109 150.805 74.6572H152.479C152.479 73.8964 152.104 73.4029 151.455 73.4029C150.867 73.4029 150.394 73.8717 150.394 74.5091C150.394 75.163 150.895 75.6277 151.488 75.6277C151.788 75.6277 152.158 75.5002 152.347 75.2987L152.092 75.0355C151.965 75.1671 151.706 75.2658 151.483 75.2658ZM151.471 73.7648C151.837 73.7648 152.039 74.0033 152.084 74.3323H150.809C150.875 73.9869 151.142 73.7648 151.471 73.7648ZM153.946 75.1959C153.901 75.2411 153.818 75.274 153.728 75.274C153.609 75.274 153.51 75.1671 153.51 75.0191V73.7977H154.012V73.4522H153.51V72.8683H153.111V73.4522H152.79V73.7977H153.111V75.0479C153.111 75.3892 153.341 75.6277 153.67 75.6277C153.822 75.6277 153.979 75.5701 154.094 75.4756L153.946 75.1959ZM154.714 76.1418C154.978 75.8416 155.072 75.6647 155.072 75.4714C155.072 75.2453 154.957 75.0808 154.776 75.0808C154.62 75.0808 154.501 75.2082 154.501 75.3522C154.501 75.5043 154.62 75.6277 154.768 75.6277C154.735 75.7552 154.661 75.8868 154.542 76.0102L154.714 76.1418ZM157.016 73.0986C157.147 73.0986 157.258 72.9834 157.258 72.8518C157.258 72.7243 157.147 72.6092 157.016 72.6092C156.876 72.6092 156.769 72.7243 156.769 72.8518C156.769 72.9834 156.876 73.0986 157.016 73.0986ZM156.81 75.5784H157.217V73.4522H156.81V75.5784ZM158.986 73.4029C158.657 73.4029 158.394 73.5592 158.23 73.8182V72.7038H157.827V75.5784H158.23V75.2082C158.394 75.4714 158.657 75.6277 158.986 75.6277C159.546 75.6277 159.965 75.1671 159.965 74.5132C159.965 73.8635 159.546 73.4029 158.986 73.4029ZM158.888 75.274C158.505 75.274 158.23 74.9574 158.23 74.5132C158.23 74.0691 158.505 73.7566 158.888 73.7566C159.278 73.7566 159.554 74.0691 159.554 74.5132C159.554 74.9574 159.278 75.274 158.888 75.274ZM161.349 73.4029C161.115 73.4029 160.847 73.4646 160.543 73.6167L160.691 73.9169C160.876 73.8224 161.082 73.7401 161.291 73.7401C161.715 73.7401 161.838 74.0239 161.838 74.2912V74.357C161.633 74.2871 161.407 74.2418 161.197 74.2418C160.728 74.2418 160.346 74.5256 160.346 74.9492C160.346 75.3645 160.679 75.6277 161.131 75.6277C161.39 75.6277 161.682 75.5085 161.838 75.2864V75.5784H162.237V74.2912C162.237 73.7648 161.921 73.4029 161.349 73.4029ZM161.209 75.3069C160.942 75.3069 160.736 75.1671 160.736 74.9368C160.736 74.7065 160.975 74.5461 161.259 74.5461C161.468 74.5461 161.666 74.5749 161.838 74.6284V74.9122C161.768 75.1753 161.472 75.3069 161.209 75.3069ZM163.254 73.8594V73.4522H162.847V75.5784H163.254V74.3693C163.291 73.9992 163.603 73.7566 164.043 73.7566V73.4029C163.677 73.4029 163.39 73.5797 163.254 73.8594ZM165.333 73.4029C165.099 73.4029 164.831 73.4646 164.527 73.6167L164.675 73.9169C164.86 73.8224 165.066 73.7401 165.275 73.7401C165.699 73.7401 165.822 74.0239 165.822 74.2912V74.357C165.617 74.2871 165.391 74.2418 165.181 74.2418C164.712 74.2418 164.33 74.5256 164.33 74.9492C164.33 75.3645 164.663 75.6277 165.115 75.6277C165.374 75.6277 165.666 75.5085 165.822 75.2864V75.5784H166.221V74.2912C166.221 73.7648 165.905 73.4029 165.333 73.4029ZM165.193 75.3069C164.926 75.3069 164.72 75.1671 164.72 74.9368C164.72 74.7065 164.959 74.5461 165.242 74.5461C165.452 74.5461 165.65 74.5749 165.822 74.6284V74.9122C165.752 75.1753 165.456 75.3069 165.193 75.3069ZM166.728 74.6407H167.813V74.2706H166.728V74.6407ZM169.303 75.2658C168.937 75.2658 168.678 75.0109 168.624 74.6572H170.298C170.298 73.8964 169.924 73.4029 169.274 73.4029C168.686 73.4029 168.213 73.8717 168.213 74.5091C168.213 75.163 168.715 75.6277 169.307 75.6277C169.607 75.6277 169.977 75.5002 170.166 75.2987L169.911 75.0355C169.784 75.1671 169.525 75.2658 169.303 75.2658ZM169.29 73.7648C169.656 73.7648 169.858 74.0033 169.903 74.3323H168.628C168.694 73.9869 168.961 73.7648 169.29 73.7648ZM172.653 75.5784L171.843 74.4886L172.616 73.4522H172.164L171.617 74.1843L171.074 73.4522H170.614L171.391 74.4927L170.581 75.5784H171.033L171.617 74.797L172.197 75.5784H172.653ZM174.235 73.4029C173.906 73.4029 173.643 73.5592 173.479 73.8182V73.4522H173.076V76.2857H173.479V75.2082C173.643 75.4714 173.906 75.6277 174.235 75.6277C174.795 75.6277 175.214 75.1671 175.214 74.5132C175.214 73.8635 174.795 73.4029 174.235 73.4029ZM174.137 75.274C173.754 75.274 173.479 74.9574 173.479 74.5132C173.479 74.0691 173.754 73.7566 174.137 73.7566C174.527 73.7566 174.803 74.0691 174.803 74.5132C174.803 74.9574 174.527 75.274 174.137 75.274ZM176.133 73.8594V73.4522H175.726V75.5784H176.133V74.3693C176.17 73.9992 176.483 73.7566 176.923 73.7566V73.4029C176.557 73.4029 176.269 73.5797 176.133 73.8594ZM178.295 75.2658C177.929 75.2658 177.67 75.0109 177.616 74.6572H179.29C179.29 73.8964 178.916 73.4029 178.266 73.4029C177.678 73.4029 177.205 73.8717 177.205 74.5091C177.205 75.163 177.707 75.6277 178.299 75.6277C178.599 75.6277 178.969 75.5002 179.158 75.2987L178.903 75.0355C178.776 75.1671 178.517 75.2658 178.295 75.2658ZM178.282 73.7648C178.648 73.7648 178.85 74.0033 178.895 74.3323H177.62C177.686 73.9869 177.953 73.7648 178.282 73.7648ZM180.531 75.6277C180.996 75.6277 181.337 75.3727 181.337 74.9697C181.337 74.5461 180.963 74.431 180.613 74.3282C180.255 74.2171 180.124 74.1678 180.124 74.0033C180.124 73.8429 180.288 73.7524 180.498 73.7524C180.683 73.7524 180.897 73.8224 181.102 73.9498L181.283 73.6496C181.053 73.4975 180.773 73.4029 180.498 73.4029C180.046 73.4029 179.721 73.6579 179.725 74.0485C179.725 74.394 179.967 74.5338 180.457 74.6695C180.72 74.7435 180.938 74.8052 180.938 75.0026C180.938 75.1671 180.773 75.2782 180.535 75.2782C180.284 75.2782 180.041 75.1836 179.815 75.0191L179.622 75.3111C179.877 75.5167 180.218 75.6277 180.531 75.6277ZM182.579 75.6277C183.044 75.6277 183.385 75.3727 183.385 74.9697C183.385 74.5461 183.011 74.431 182.661 74.3282C182.304 74.2171 182.172 74.1678 182.172 74.0033C182.172 73.8429 182.336 73.7524 182.546 73.7524C182.731 73.7524 182.945 73.8224 183.151 73.9498L183.332 73.6496C183.101 73.4975 182.822 73.4029 182.546 73.4029C182.094 73.4029 181.769 73.6579 181.773 74.0485C181.773 74.394 182.016 74.5338 182.505 74.6695C182.768 74.7435 182.986 74.8052 182.986 75.0026C182.986 75.1671 182.822 75.2782 182.583 75.2782C182.332 75.2782 182.09 75.1836 181.863 75.0191L181.67 75.3111C181.925 75.5167 182.266 75.6277 182.579 75.6277ZM184.397 75.5784H184.771L185.285 73.9992L185.795 75.5784H186.169L186.885 73.4522H186.47L185.984 75.0355L185.458 73.4522H185.113L184.586 75.0355L184.097 73.4522H183.681L184.397 75.5784ZM188.188 73.4029C187.954 73.4029 187.687 73.4646 187.382 73.6167L187.53 73.9169C187.715 73.8224 187.921 73.7401 188.131 73.7401C188.554 73.7401 188.678 74.0239 188.678 74.2912V74.357C188.472 74.2871 188.246 74.2418 188.036 74.2418C187.567 74.2418 187.185 74.5256 187.185 74.9492C187.185 75.3645 187.518 75.6277 187.97 75.6277C188.229 75.6277 188.521 75.5085 188.678 75.2864V75.5784H189.077V74.2912C189.077 73.7648 188.76 73.4029 188.188 73.4029ZM188.049 75.3069C187.781 75.3069 187.576 75.1671 187.576 74.9368C187.576 74.7065 187.814 74.5461 188.098 74.5461C188.308 74.5461 188.505 74.5749 188.678 74.6284V74.9122C188.608 75.1753 188.312 75.3069 188.049 75.3069ZM190.04 76.3186C190.344 76.3145 190.57 76.1541 190.722 75.7717L191.66 73.4522H191.236L190.591 75.1301L189.908 73.4522H189.472L190.385 75.5907L190.278 75.8169C190.208 75.9403 190.118 75.9814 189.986 75.9814C189.904 75.9814 189.809 75.9608 189.727 75.9156L189.637 76.2281C189.748 76.2857 189.896 76.3186 190.04 76.3186ZM191.839 76.1418C192.102 75.8416 192.197 75.6647 192.197 75.4714C192.197 75.2453 192.082 75.0808 191.901 75.0808C191.744 75.0808 191.625 75.2082 191.625 75.3522C191.625 75.5043 191.744 75.6277 191.892 75.6277C191.859 75.7552 191.785 75.8868 191.666 76.0102L191.839 76.1418ZM193.939 75.5784H194.342V72.7038H193.939V75.5784ZM195.827 73.4029C195.592 73.4029 195.325 73.4646 195.021 73.6167L195.169 73.9169C195.354 73.8224 195.56 73.7401 195.769 73.7401C196.193 73.7401 196.316 74.0239 196.316 74.2912V74.357C196.111 74.2871 195.884 74.2418 195.675 74.2418C195.206 74.2418 194.823 74.5256 194.823 74.9492C194.823 75.3645 195.157 75.6277 195.609 75.6277C195.868 75.6277 196.16 75.5085 196.316 75.2864V75.5784H196.715V74.2912C196.715 73.7648 196.399 73.4029 195.827 73.4029ZM195.687 75.3069C195.42 75.3069 195.214 75.1671 195.214 74.9368C195.214 74.7065 195.453 74.5461 195.736 74.5461C195.946 74.5461 196.144 74.5749 196.316 74.6284V74.9122C196.246 75.1753 195.95 75.3069 195.687 75.3069ZM198.92 73.4522V73.7936C198.76 73.555 198.488 73.4029 198.168 73.4029C197.608 73.4029 197.201 73.8182 197.201 74.4104C197.201 75.0026 197.608 75.4221 198.168 75.4221C198.488 75.4221 198.752 75.2782 198.92 75.0355V75.344C198.92 75.7141 198.645 75.932 198.188 75.932C197.933 75.932 197.678 75.8457 197.522 75.6976L197.362 76.002C197.563 76.1664 197.892 76.2857 198.25 76.2857C198.879 76.2857 199.327 75.8991 199.327 75.3522V73.4522H198.92ZM198.27 75.0684C197.892 75.0684 197.625 74.797 197.625 74.4104C197.625 74.028 197.892 73.7566 198.27 73.7566C198.649 73.7566 198.92 74.028 198.92 74.4104C198.92 74.797 198.649 75.0684 198.27 75.0684ZM200.942 75.6277C201.547 75.6277 202.057 75.1178 202.057 74.5132C202.057 73.9087 201.547 73.4029 200.942 73.4029C200.333 73.4029 199.819 73.9087 199.819 74.5132C199.819 75.1178 200.333 75.6277 200.942 75.6277ZM200.942 75.274C200.551 75.274 200.226 74.9286 200.226 74.5132C200.226 74.102 200.551 73.7566 200.942 73.7566C201.324 73.7566 201.649 74.102 201.649 74.5132C201.649 74.9286 201.324 75.274 200.942 75.274ZM203.302 75.6277C203.767 75.6277 204.108 75.3727 204.108 74.9697C204.108 74.5461 203.734 74.431 203.384 74.3282C203.026 74.2171 202.895 74.1678 202.895 74.0033C202.895 73.8429 203.059 73.7524 203.269 73.7524C203.454 73.7524 203.668 73.8224 203.874 73.9498L204.054 73.6496C203.824 73.4975 203.545 73.4029 203.269 73.4029C202.817 73.4029 202.492 73.6579 202.496 74.0485C202.496 74.394 202.739 74.5338 203.228 74.6695C203.491 74.7435 203.709 74.8052 203.709 75.0026C203.709 75.1671 203.545 75.2782 203.306 75.2782C203.055 75.2782 202.813 75.1836 202.586 75.0191L202.393 75.3111C202.648 75.5167 202.989 75.6277 203.302 75.6277ZM206.527 75.6277C206.992 75.6277 207.333 75.3727 207.333 74.9697C207.333 74.5461 206.959 74.431 206.609 74.3282C206.251 74.2171 206.12 74.1678 206.12 74.0033C206.12 73.8429 206.284 73.7524 206.494 73.7524C206.679 73.7524 206.893 73.8224 207.098 73.9498L207.279 73.6496C207.049 73.4975 206.769 73.4029 206.494 73.4029C206.042 73.4029 205.717 73.6579 205.721 74.0485C205.721 74.394 205.963 74.5338 206.453 74.6695C206.716 74.7435 206.934 74.8052 206.934 75.0026C206.934 75.1671 206.769 75.2782 206.531 75.2782C206.28 75.2782 206.037 75.1836 205.811 75.0191L205.618 75.3111C205.873 75.5167 206.214 75.6277 206.527 75.6277ZM208.801 75.1959C208.756 75.2411 208.674 75.274 208.583 75.274C208.464 75.274 208.365 75.1671 208.365 75.0191V73.7977H208.867V73.4522H208.365V72.8683H207.966V73.4522H207.646V73.7977H207.966V75.0479C207.966 75.3892 208.197 75.6277 208.526 75.6277C208.678 75.6277 208.834 75.5701 208.949 75.4756L208.801 75.1959ZM210.257 73.4029C210.022 73.4029 209.755 73.4646 209.451 73.6167L209.599 73.9169C209.784 73.8224 209.989 73.7401 210.199 73.7401C210.623 73.7401 210.746 74.0239 210.746 74.2912V74.357C210.54 74.2871 210.314 74.2418 210.104 74.2418C209.636 74.2418 209.253 74.5256 209.253 74.9492C209.253 75.3645 209.586 75.6277 210.039 75.6277C210.298 75.6277 210.59 75.5085 210.746 75.2864V75.5784H211.145V74.2912C211.145 73.7648 210.828 73.4029 210.257 73.4029ZM210.117 75.3069C209.849 75.3069 209.644 75.1671 209.644 74.9368C209.644 74.7065 209.882 74.5461 210.166 74.5461C210.376 74.5461 210.573 74.5749 210.746 74.6284V74.9122C210.676 75.1753 210.38 75.3069 210.117 75.3069ZM212.729 75.1959C212.684 75.2411 212.601 75.274 212.511 75.274C212.392 75.274 212.293 75.1671 212.293 75.0191V73.7977H212.795V73.4522H212.293V72.8683H211.894V73.4522H211.573V73.7977H211.894V75.0479C211.894 75.3892 212.124 75.6277 212.453 75.6277C212.606 75.6277 212.762 75.5701 212.877 75.4756L212.729 75.1959ZM214.267 75.2658C213.901 75.2658 213.641 75.0109 213.588 74.6572H215.262C215.262 73.8964 214.888 73.4029 214.238 73.4029C213.65 73.4029 213.177 73.8717 213.177 74.5091C213.177 75.163 213.678 75.6277 214.271 75.6277C214.571 75.6277 214.941 75.5002 215.13 75.2987L214.875 75.0355C214.748 75.1671 214.489 75.2658 214.267 75.2658ZM214.254 73.7648C214.62 73.7648 214.822 74.0033 214.867 74.3323H213.592C213.658 73.9869 213.925 73.7648 214.254 73.7648ZM215.989 75.6277C216.137 75.6277 216.256 75.5002 216.256 75.3481C216.256 75.2082 216.137 75.0808 215.989 75.0808C215.832 75.0808 215.713 75.2082 215.713 75.3481C215.713 75.5002 215.832 75.6277 215.989 75.6277Z" fill="white"/>
</g>
<rect x="142.55" y="81.3832" width="46.5341" height="11.784" rx="2.05622" fill="#EA3788"/>
<path d="M148.056 88.2683C148.483 88.2683 148.878 88.0833 149.154 87.7954L148.714 87.4006C148.549 87.5898 148.315 87.7173 148.056 87.7173C147.583 87.7173 147.18 87.2978 147.18 86.8043C147.18 86.3149 147.583 85.8955 148.056 85.8955C148.315 85.8955 148.549 86.0229 148.714 86.2121L149.154 85.8173C148.878 85.5253 148.483 85.3444 148.056 85.3444C147.245 85.3444 146.554 86.0106 146.554 86.8043C146.554 87.598 147.245 88.2683 148.056 88.2683ZM150.462 86.0435C150.166 86.0435 149.874 86.1258 149.574 86.2779L149.776 86.6768C149.944 86.5905 150.129 86.5247 150.327 86.5247C150.676 86.5247 150.816 86.7221 150.816 86.9482V86.9894C150.635 86.9195 150.446 86.8824 150.273 86.8824C149.78 86.8824 149.389 87.1703 149.389 87.5898C149.389 87.9969 149.739 88.2683 150.191 88.2683C150.421 88.2683 150.664 88.1779 150.816 88.0051V88.219H151.396V86.9482C151.396 86.3931 151.018 86.0435 150.462 86.0435ZM150.327 87.853C150.121 87.853 149.969 87.7461 149.969 87.5733C149.969 87.4006 150.142 87.2731 150.36 87.2731C150.524 87.2731 150.68 87.3019 150.816 87.3513V87.5487C150.775 87.7461 150.557 87.853 150.327 87.853ZM153.132 86.0435C152.856 86.0435 152.618 86.1669 152.49 86.3602V86.0929H151.89V88.219H152.49V86.9482L152.494 86.9606C152.494 86.7303 152.688 86.5493 152.938 86.5493C153.177 86.5493 153.341 86.7303 153.341 86.9935V88.219H153.921V86.866C153.921 86.3848 153.592 86.0435 153.132 86.0435ZM155.469 88.2683C155.822 88.2683 156.11 88.1244 156.32 87.8941L155.921 87.5569C155.81 87.6803 155.637 87.7625 155.473 87.7625C155.156 87.7625 154.893 87.4829 154.893 87.1498C154.893 86.8249 155.156 86.5493 155.469 86.5493C155.633 86.5493 155.802 86.6275 155.909 86.7467L156.308 86.4054C156.102 86.1833 155.818 86.0435 155.473 86.0435C154.844 86.0435 154.309 86.5493 154.309 87.1539C154.309 87.7584 154.839 88.2683 155.469 88.2683ZM157.685 87.7378C157.434 87.7378 157.249 87.5816 157.179 87.3513H158.713C158.713 86.5493 158.322 86.0435 157.656 86.0435C157.035 86.0435 156.562 86.5082 156.562 87.1498C156.562 87.8036 157.055 88.2683 157.689 88.2683C158.001 88.2683 158.367 88.1367 158.556 87.9393L158.174 87.5487C158.059 87.6597 157.853 87.7378 157.685 87.7378ZM157.681 86.574C157.923 86.574 158.079 86.7097 158.137 86.9195H157.187C157.265 86.7056 157.454 86.574 157.681 86.574ZM159.119 88.219H159.719V85.3444H159.119V88.219ZM163.798 88.219L163.103 87.232C163.489 87.0963 163.744 86.7673 163.744 86.3478C163.744 85.7885 163.292 85.3937 162.679 85.3937H161.408V88.219H162.013V87.3019H162.461L163.107 88.219H163.798ZM162.013 85.9489H162.613C162.914 85.9489 163.119 86.1052 163.119 86.3478C163.119 86.5905 162.914 86.7467 162.613 86.7467H162.013V85.9489ZM165.183 87.7378C164.932 87.7378 164.747 87.5816 164.677 87.3513H166.211C166.211 86.5493 165.82 86.0435 165.154 86.0435C164.533 86.0435 164.06 86.5082 164.06 87.1498C164.06 87.8036 164.553 88.2683 165.187 88.2683C165.499 88.2683 165.865 88.1367 166.054 87.9393L165.672 87.5487C165.557 87.6597 165.351 87.7378 165.183 87.7378ZM165.178 86.574C165.421 86.574 165.577 86.7097 165.635 86.9195H164.685C164.763 86.7056 164.952 86.574 165.178 86.574ZM167.415 88.2683C167.937 88.2683 168.278 88.001 168.278 87.5816C168.278 87.1169 167.871 86.9935 167.505 86.8989C167.217 86.8208 167.131 86.7879 167.131 86.6727C167.131 86.5987 167.234 86.5452 167.382 86.5452C167.563 86.5452 167.785 86.6151 167.978 86.7344L168.221 86.3067C167.986 86.1504 167.686 86.0435 167.382 86.0435C166.88 86.0435 166.547 86.3314 166.551 86.7344C166.555 87.1539 166.892 87.2731 167.328 87.3801C167.546 87.4376 167.703 87.4788 167.703 87.6104C167.703 87.7049 167.587 87.7707 167.427 87.7707C167.143 87.7707 166.905 87.6679 166.716 87.5322L166.457 87.9476C166.711 88.1532 167.073 88.2683 167.415 88.2683ZM169.685 87.7378C169.434 87.7378 169.249 87.5816 169.179 87.3513H170.713C170.713 86.5493 170.322 86.0435 169.656 86.0435C169.035 86.0435 168.562 86.5082 168.562 87.1498C168.562 87.8036 169.055 88.2683 169.689 88.2683C170.001 88.2683 170.367 88.1367 170.556 87.9393L170.174 87.5487C170.059 87.6597 169.853 87.7378 169.685 87.7378ZM169.68 86.574C169.923 86.574 170.079 86.7097 170.137 86.9195H169.187C169.265 86.7056 169.454 86.574 169.68 86.574ZM171.719 86.4877V86.0929H171.119V88.219H171.719V87.2032C171.719 86.8043 172.003 86.5493 172.447 86.5493V86.0435C172.122 86.0435 171.859 86.2121 171.719 86.4877ZM173.505 88.219H174.06L174.969 86.0929H174.344L173.785 87.5281L173.213 86.0929H172.584L173.505 88.219ZM176.097 86.0435C175.801 86.0435 175.509 86.1258 175.209 86.2779L175.41 86.6768C175.579 86.5905 175.764 86.5247 175.961 86.5247C176.311 86.5247 176.451 86.7221 176.451 86.9482V86.9894C176.27 86.9195 176.081 86.8824 175.908 86.8824C175.414 86.8824 175.024 87.1703 175.024 87.5898C175.024 87.9969 175.373 88.2683 175.826 88.2683C176.056 88.2683 176.299 88.1779 176.451 88.0051V88.219H177.031V86.9482C177.031 86.3931 176.652 86.0435 176.097 86.0435ZM175.961 87.853C175.756 87.853 175.603 87.7461 175.603 87.5733C175.603 87.4006 175.776 87.2731 175.994 87.2731C176.159 87.2731 176.315 87.3019 176.451 87.3513V87.5487C176.41 87.7461 176.192 87.853 175.961 87.853ZM178.655 87.6926C178.614 87.7337 178.532 87.7625 178.45 87.7625C178.339 87.7625 178.248 87.6638 178.248 87.524V86.5781H178.709V86.0929H178.248V85.5089H177.672V86.0929H177.38V86.5781H177.672V87.6186C177.672 88.001 177.935 88.2683 178.31 88.2683C178.482 88.2683 178.676 88.1943 178.799 88.0833L178.655 87.6926ZM179.475 85.8009C179.652 85.8009 179.796 85.6528 179.796 85.4719C179.796 85.3033 179.652 85.1511 179.475 85.1511C179.29 85.1511 179.146 85.3033 179.146 85.4719C179.146 85.6528 179.29 85.8009 179.475 85.8009ZM179.171 88.219H179.771V86.0929H179.171V88.219ZM181.34 88.2683C181.969 88.2683 182.496 87.7584 182.496 87.1539C182.496 86.5493 181.969 86.0435 181.34 86.0435C180.707 86.0435 180.176 86.5493 180.176 87.1539C180.176 87.7584 180.707 88.2683 181.34 88.2683ZM181.34 87.7625C181.019 87.7625 180.752 87.4829 180.752 87.1539C180.752 86.8249 181.019 86.5493 181.34 86.5493C181.657 86.5493 181.924 86.8249 181.924 87.1539C181.924 87.4829 181.657 87.7625 181.34 87.7625ZM184.132 86.0435C183.856 86.0435 183.618 86.1669 183.49 86.3602V86.0929H182.89V88.219H183.49V86.9482L183.494 86.9606C183.494 86.7303 183.688 86.5493 183.938 86.5493C184.177 86.5493 184.341 86.7303 184.341 86.9935V88.219H184.921V86.866C184.921 86.3848 184.592 86.0435 184.132 86.0435Z" fill="white"/>
</g>
<path d="M230.453 76.0938H232.099V77.7403H233.745V79.3857H225.519V77.7403H227.164V74.4483H230.456V76.0938H230.453ZM251.839 90.8979H253.482V89.2525H251.839V90.8979ZM232.098 76.0938H233.744V74.4483H232.098V76.0938ZM255.125 90.8979H256.772V89.2525H255.125V90.8979ZM235.39 92.5422H238.679V90.8967H235.39V92.5422ZM250.193 92.5422V90.8967H248.546V92.5422H250.193ZM243.613 92.5422H245.259V89.2513H243.613V92.5422ZM230.453 71.1587V72.8041H235.388V71.1587H230.453ZM228.81 72.8029V71.1575H225.518V74.4483H227.163V72.8029H228.81ZM233.744 69.5121H222.229V57.9988H233.744V69.5121ZM232.098 59.6442H223.873V67.8678H232.098V59.6442ZM225.518 89.2525H230.452V84.3174H225.518V89.2525ZM241.967 87.6059V89.2525H243.615V87.6059H241.967ZM230.453 61.2896H225.519V66.2224H230.453V61.2896ZM256.771 57.9988V69.5132H245.257V57.9988H256.771ZM255.125 59.6442H246.902V67.8678H255.125V59.6442ZM222.227 81.0254H233.742V92.5399H222.227V81.0254ZM223.874 90.8979H232.099V82.672H223.874V90.8979ZM223.874 71.1587H222.227V79.3846H223.874V71.1587ZM245.257 79.3823V81.0254H246.902V79.3823H245.257ZM240.322 85.9628V84.3174H238.677V85.964H235.389V89.2559H238.677V90.9014H240.322V87.6094H241.968V85.964H240.322V85.9628ZM235.39 64.5793H238.679V62.9316H235.39V64.5793ZM248.547 77.7392H251.84V79.3846H253.484V74.4506H251.84V71.1587H250.193V76.0938H245.261V77.7403H246.906V79.3857H248.552V77.7403H248.547V77.7392ZM250.193 82.672H248.546V81.0254H246.901V84.3174H241.967V85.964H245.26V89.2559H246.905V90.9014H248.551V87.6094H255.129V85.964H250.195V82.672H250.193ZM250.193 82.672H251.84V79.3823H250.193V82.672ZM237.033 82.672V81.0254H238.676V79.3823H240.32V77.7369H241.967V74.4449H246.901V71.1529H245.255V72.7983H243.61V66.2189H241.965V62.9269H243.61V57.9976H241.965V61.2885H240.319V57.9976H235.385V61.2885H237.031V59.643H238.674V62.9316H240.319V67.8667H241.965V69.5121H240.319V72.8029H238.674V69.5121H237.031V67.8678H235.385V71.1587H237.031V72.8041H235.385V77.7403H237.031V74.4483H238.674V77.7403H237.031V79.3857H235.385V84.3174H238.674V82.672H237.033ZM255.125 84.3174V82.672H251.837V84.3174H255.125ZM253.48 61.2896H248.547V66.2224H253.48V61.2896ZM240.322 82.672H243.615V81.0254H241.967V79.3823H240.32V82.672H240.322ZM243.613 79.3823V77.7369H241.966V79.3823H243.613ZM253.48 72.8029H256.772V71.1575H253.48V72.8029ZM255.125 85.9628H256.772V84.3174H255.125V85.9628ZM255.125 76.0938H256.772V74.4483H255.125V76.0938ZM240.322 67.8678H238.677V69.5132H240.322V67.8678Z" fill="white"/>
</g>
<rect x="132.269" y="123.102" width="134.888" height="56.3126" rx="6.54797" fill="#0E79B2" fill-opacity="0.7"/>
<g clip-path="url(#clip5)">
<g clip-path="url(#clip6)">
<g clip-path="url(#clip7)">
<g clip-path="url(#clip8)">
<path d="M144.935 136.053V135.666H142.859V138.492H143.278V137.262H144.775V136.876H143.278V136.053H144.935ZM146.359 138.179C145.993 138.179 145.734 137.924 145.68 137.571H147.354C147.354 136.81 146.98 136.316 146.33 136.316C145.742 136.316 145.269 136.785 145.269 137.422C145.269 138.076 145.771 138.541 146.363 138.541C146.663 138.541 147.033 138.414 147.223 138.212L146.968 137.949C146.84 138.08 146.581 138.179 146.359 138.179ZM146.347 136.678C146.713 136.678 146.914 136.917 146.959 137.246H145.685C145.75 136.9 146.018 136.678 146.347 136.678ZM149.006 136.316C148.677 136.316 148.414 136.472 148.25 136.732V135.617H147.847V138.492H148.25V138.122C148.414 138.385 148.677 138.541 149.006 138.541C149.566 138.541 149.985 138.08 149.985 137.427C149.985 136.777 149.566 136.316 149.006 136.316ZM148.908 138.187C148.525 138.187 148.25 137.871 148.25 137.427C148.25 136.982 148.525 136.67 148.908 136.67C149.298 136.67 149.574 136.982 149.574 137.427C149.574 137.871 149.298 138.187 148.908 138.187ZM151.551 138.492H153.562V138.105H152.209L152.871 137.546C153.356 137.151 153.537 136.851 153.537 136.472C153.537 135.958 153.117 135.617 152.591 135.617C152.143 135.617 151.81 135.823 151.563 136.164L151.843 136.411C152.04 136.156 152.266 135.991 152.575 135.991C152.854 135.991 153.109 136.172 153.109 136.481C153.109 136.736 152.965 136.978 152.587 137.295L151.551 138.15V138.492ZM155.016 138.541C155.629 138.541 156.036 138.196 156.036 137.719C156.036 137.324 155.728 137.11 155.432 137.044C155.728 136.954 155.974 136.736 155.974 136.386C155.974 135.934 155.575 135.617 155.004 135.617C154.543 135.617 154.222 135.831 154.005 136.115L154.264 136.37C154.461 136.139 154.679 135.991 154.975 135.991C155.304 135.991 155.551 136.181 155.551 136.444C155.551 136.727 155.3 136.884 154.942 136.884L154.634 136.88V137.25H154.942C155.366 137.246 155.608 137.398 155.608 137.69C155.608 137.974 155.374 138.167 155.008 138.167C154.683 138.167 154.408 138.015 154.218 137.784L153.951 138.06C154.169 138.331 154.535 138.541 155.016 138.541ZM156.747 139.055C157.01 138.755 157.104 138.578 157.104 138.385C157.104 138.159 156.989 137.994 156.808 137.994C156.652 137.994 156.533 138.122 156.533 138.266C156.533 138.418 156.652 138.541 156.8 138.541C156.767 138.669 156.693 138.8 156.574 138.924L156.747 139.055ZM158.743 138.492H160.754V138.105H159.401L160.063 137.546C160.549 137.151 160.73 136.851 160.73 136.472C160.73 135.958 160.31 135.617 159.784 135.617C159.336 135.617 159.002 135.823 158.756 136.164L159.035 136.411C159.233 136.156 159.459 135.991 159.767 135.991C160.047 135.991 160.302 136.172 160.302 136.481C160.302 136.736 160.158 136.978 159.78 137.295L158.743 138.15V138.492ZM162.431 138.541C163.134 138.541 163.636 137.937 163.636 137.077C163.636 136.222 163.134 135.617 162.431 135.617C161.72 135.617 161.222 136.222 161.222 137.077C161.222 137.937 161.72 138.541 162.431 138.541ZM162.431 138.159C161.97 138.159 161.646 137.71 161.646 137.077C161.646 136.444 161.97 136 162.431 136C162.888 136 163.208 136.444 163.208 137.077C163.208 137.71 162.888 138.159 162.431 138.159ZM164.053 138.492H166.064V138.105H164.711L165.373 137.546C165.858 137.151 166.039 136.851 166.039 136.472C166.039 135.958 165.619 135.617 165.093 135.617C164.645 135.617 164.312 135.823 164.065 136.164L164.345 136.411C164.542 136.156 164.768 135.991 165.077 135.991C165.356 135.991 165.611 136.172 165.611 136.481C165.611 136.736 165.467 136.978 165.089 137.295L164.053 138.15V138.492ZM167.74 138.541C168.443 138.541 168.945 137.937 168.945 137.077C168.945 136.222 168.443 135.617 167.74 135.617C167.029 135.617 166.531 136.222 166.531 137.077C166.531 137.937 167.029 138.541 167.74 138.541ZM167.74 138.159C167.28 138.159 166.955 137.71 166.955 137.077C166.955 136.444 167.28 136 167.74 136C168.197 136 168.518 136.444 168.518 137.077C168.518 137.71 168.197 138.159 167.74 138.159Z" fill="white"/>
<path d="M175.404 138.492H175.823V135.666H175.486L174.742 136.172L174.914 136.472L175.404 136.16V138.492ZM176.383 138.492H178.394V138.105H177.041L177.703 137.546C178.188 137.151 178.369 136.851 178.369 136.472C178.369 135.958 177.949 135.617 177.423 135.617C176.975 135.617 176.642 135.823 176.395 136.164L176.675 136.411C176.872 136.156 177.098 135.991 177.407 135.991C177.686 135.991 177.941 136.172 177.941 136.481C177.941 136.736 177.797 136.978 177.419 137.295L176.383 138.15V138.492ZM179.19 136.908C179.338 136.908 179.457 136.781 179.457 136.629C179.457 136.489 179.338 136.361 179.19 136.361C179.034 136.361 178.915 136.489 178.915 136.629C178.915 136.781 179.034 136.908 179.19 136.908ZM179.19 138.541C179.338 138.541 179.457 138.414 179.457 138.261C179.457 138.122 179.338 137.994 179.19 137.994C179.034 137.994 178.915 138.122 178.915 138.261C178.915 138.414 179.034 138.541 179.19 138.541ZM181.159 138.541C181.862 138.541 182.363 137.937 182.363 137.077C182.363 136.222 181.862 135.617 181.159 135.617C180.447 135.617 179.949 136.222 179.949 137.077C179.949 137.937 180.447 138.541 181.159 138.541ZM181.159 138.159C180.698 138.159 180.373 137.71 180.373 137.077C180.373 136.444 180.698 136 181.159 136C181.615 136 181.936 136.444 181.936 137.077C181.936 137.71 181.615 138.159 181.159 138.159ZM184.018 138.541C184.721 138.541 185.223 137.937 185.223 137.077C185.223 136.222 184.721 135.617 184.018 135.617C183.307 135.617 182.809 136.222 182.809 137.077C182.809 137.937 183.307 138.541 184.018 138.541ZM184.018 138.159C183.557 138.159 183.232 137.71 183.232 137.077C183.232 136.444 183.557 136 184.018 136C184.474 136 184.795 136.444 184.795 137.077C184.795 137.71 184.474 138.159 184.018 138.159ZM186.931 138.492H187.347V137.509H188.12C188.716 137.509 189.169 137.126 189.169 136.588C189.169 136.049 188.716 135.666 188.12 135.666H186.931V138.492ZM187.347 137.122V136.053H188.062C188.469 136.053 188.745 136.255 188.745 136.588C188.745 136.921 188.469 137.122 188.062 137.122H187.347ZM189.651 138.492H190.067V136.481L191.058 138.327L192.049 136.481V138.492H192.464V135.666H192.049L191.058 137.513L190.067 135.666H189.651V138.492Z" fill="white"/>
<g clip-path="url(#clip9)">
<path d="M203.436 136.845C203.966 136.845 204.392 136.417 204.392 135.886C204.392 135.356 203.966 134.927 203.436 134.927C202.905 134.927 202.477 135.356 202.477 135.886C202.477 136.417 202.905 136.845 203.436 136.845ZM200.879 136.845C201.409 136.845 201.834 136.417 201.834 135.886C201.834 135.356 201.409 134.927 200.879 134.927C200.348 134.927 199.92 135.356 199.92 135.886C199.92 136.417 200.348 136.845 200.879 136.845ZM200.879 137.484C200.134 137.484 198.641 137.858 198.641 138.603V139.402H203.116V138.603C203.116 137.858 201.623 137.484 200.879 137.484ZM203.436 137.484C203.343 137.484 203.238 137.491 203.126 137.5C203.497 137.769 203.755 138.13 203.755 138.603V139.402H205.673V138.603C205.673 137.858 204.181 137.484 203.436 137.484Z" fill="white"/>
</g>
<path d="M208.28 138.48H208.699V135.655H208.362L207.618 136.16L207.791 136.461L208.28 136.148V138.48Z" fill="white"/>
</g>
<path d="M143.644 146.535H144.059V144.096H144.989V143.71H142.719V144.096H143.644V146.535ZM146.456 146.584C147.061 146.584 147.571 146.074 147.571 145.47C147.571 144.865 147.061 144.359 146.456 144.359C145.848 144.359 145.333 144.865 145.333 145.47C145.333 146.074 145.848 146.584 146.456 146.584ZM146.456 146.23C146.065 146.23 145.741 145.885 145.741 145.47C145.741 145.058 146.065 144.713 146.456 144.713C146.839 144.713 147.164 145.058 147.164 145.47C147.164 145.885 146.839 146.23 146.456 146.23ZM149.285 146.535H150.26C151.173 146.535 151.823 145.947 151.823 145.12C151.823 144.294 151.173 143.71 150.26 143.71H149.285V146.535ZM149.701 146.156V144.088H150.285C150.939 144.088 151.395 144.516 151.395 145.12C151.395 145.729 150.939 146.156 150.285 146.156H149.701ZM153.364 146.584C153.968 146.584 154.478 146.074 154.478 145.47C154.478 144.865 153.968 144.359 153.364 144.359C152.755 144.359 152.241 144.865 152.241 145.47C152.241 146.074 152.755 146.584 153.364 146.584ZM153.364 146.23C152.973 146.23 152.648 145.885 152.648 145.47C152.648 145.058 152.973 144.713 153.364 144.713C153.746 144.713 154.071 145.058 154.071 145.47C154.071 145.885 153.746 146.23 153.364 146.23ZM157.332 144.359C157.011 144.359 156.739 144.524 156.641 144.787C156.517 144.524 156.267 144.359 155.958 144.359C155.687 144.359 155.465 144.495 155.358 144.705V144.409H154.951V146.535H155.358V145.206C155.358 144.914 155.572 144.713 155.876 144.713C156.143 144.713 156.328 144.931 156.328 145.243V146.535H156.727V145.206C156.727 144.914 156.941 144.713 157.245 144.713C157.513 144.713 157.698 144.931 157.698 145.243V146.535H158.097V145.182C158.097 144.701 157.776 144.359 157.332 144.359ZM158.883 144.055C159.015 144.055 159.126 143.94 159.126 143.808C159.126 143.681 159.015 143.566 158.883 143.566C158.743 143.566 158.636 143.681 158.636 143.808C158.636 143.94 158.743 144.055 158.883 144.055ZM158.677 146.535H159.085V144.409H158.677V146.535ZM160.755 144.359C160.467 144.359 160.208 144.507 160.081 144.717V144.409H159.674V146.535H160.081V145.157C160.114 144.906 160.369 144.713 160.665 144.713C160.952 144.713 161.154 144.935 161.154 145.252V146.535H161.553V145.182C161.553 144.701 161.224 144.359 160.755 144.359ZM163.143 146.584C163.747 146.584 164.257 146.074 164.257 145.47C164.257 144.865 163.747 144.359 163.143 144.359C162.534 144.359 162.02 144.865 162.02 145.47C162.02 146.074 162.534 146.584 163.143 146.584ZM163.143 146.23C162.752 146.23 162.427 145.885 162.427 145.47C162.427 145.058 162.752 144.713 163.143 144.713C163.525 144.713 163.85 145.058 163.85 145.47C163.85 145.885 163.525 146.23 163.143 146.23ZM165.503 146.584C165.967 146.584 166.309 146.329 166.309 145.926C166.309 145.503 165.935 145.387 165.585 145.285C165.227 145.174 165.096 145.124 165.096 144.96C165.096 144.799 165.26 144.709 165.47 144.709C165.655 144.709 165.869 144.779 166.074 144.906L166.255 144.606C166.025 144.454 165.745 144.359 165.47 144.359C165.018 144.359 164.693 144.614 164.697 145.005C164.697 145.35 164.939 145.49 165.429 145.626C165.692 145.7 165.91 145.762 165.91 145.959C165.91 146.124 165.745 146.235 165.507 146.235C165.256 146.235 165.013 146.14 164.787 145.975L164.594 146.267C164.849 146.473 165.19 146.584 165.503 146.584ZM167.971 146.535H168.386V145.552H169.159C169.756 145.552 170.208 145.169 170.208 144.631C170.208 144.092 169.756 143.71 169.159 143.71H167.971V146.535ZM168.386 145.165V144.096H169.102C169.509 144.096 169.785 144.298 169.785 144.631C169.785 144.964 169.509 145.165 169.102 145.165H168.386ZM170.831 144.055C170.962 144.055 171.073 143.94 171.073 143.808C171.073 143.681 170.962 143.566 170.831 143.566C170.691 143.566 170.584 143.681 170.584 143.808C170.584 143.94 170.691 144.055 170.831 144.055ZM170.625 146.535H171.032V144.409H170.625V146.535ZM171.531 146.535H173.266V146.169H172.065L173.258 144.713V144.409H171.555V144.775H172.723L171.531 146.23V146.535ZM173.667 146.535H175.403V146.169H174.202L175.395 144.713V144.409H173.692V144.775H174.86L173.667 146.23V146.535ZM176.787 144.359C176.552 144.359 176.285 144.421 175.981 144.573L176.129 144.873C176.314 144.779 176.519 144.697 176.729 144.697C177.153 144.697 177.276 144.98 177.276 145.248V145.313C177.071 145.243 176.844 145.198 176.635 145.198C176.166 145.198 175.783 145.482 175.783 145.906C175.783 146.321 176.116 146.584 176.569 146.584C176.828 146.584 177.12 146.465 177.276 146.243V146.535H177.675V145.248C177.675 144.721 177.358 144.359 176.787 144.359ZM176.647 146.263C176.38 146.263 176.174 146.124 176.174 145.893C176.174 145.663 176.413 145.503 176.696 145.503C176.906 145.503 177.103 145.531 177.276 145.585V145.869C177.206 146.132 176.91 146.263 176.647 146.263ZM178.469 147.098C178.733 146.798 178.827 146.621 178.827 146.428C178.827 146.202 178.712 146.037 178.531 146.037C178.375 146.037 178.256 146.165 178.256 146.309C178.256 146.461 178.375 146.584 178.523 146.584C178.49 146.712 178.416 146.843 178.297 146.967L178.469 147.098ZM180.631 146.535H181.046V144.392L182.671 146.535H183.086V143.71H182.671V145.852L181.046 143.71H180.631V146.535ZM184.749 146.584C185.354 146.584 185.864 146.074 185.864 145.47C185.864 144.865 185.354 144.359 184.749 144.359C184.141 144.359 183.627 144.865 183.627 145.47C183.627 146.074 184.141 146.584 184.749 146.584ZM184.749 146.23C184.359 146.23 184.034 145.885 184.034 145.47C184.034 145.058 184.359 144.713 184.749 144.713C185.132 144.713 185.457 145.058 185.457 145.47C185.457 145.885 185.132 146.23 184.749 146.23ZM186.595 146.584C186.743 146.584 186.862 146.457 186.862 146.304C186.862 146.165 186.743 146.037 186.595 146.037C186.439 146.037 186.32 146.165 186.32 146.304C186.32 146.457 186.439 146.584 186.595 146.584ZM188.547 144.75C188.235 144.75 187.951 144.89 187.778 145.124C187.79 144.499 188.115 144.034 188.547 144.034C188.806 144.034 188.983 144.145 189.16 144.306L189.374 143.985C189.156 143.792 188.897 143.66 188.551 143.66C187.86 143.66 187.354 144.31 187.354 145.165C187.354 145.971 187.688 146.584 188.473 146.584C189.069 146.584 189.497 146.177 189.497 145.634C189.497 145.075 189.065 144.75 188.547 144.75ZM188.457 146.23C188.086 146.23 187.885 145.959 187.811 145.556C187.885 145.28 188.136 145.1 188.448 145.1C188.794 145.1 189.069 145.309 189.069 145.655C189.069 145.938 188.839 146.23 188.457 146.23ZM193.433 146.535H193.893L192.68 143.71H192.22L191.006 146.535H191.467L191.714 145.959H193.186L193.433 146.535ZM191.874 145.585L192.45 144.244L193.026 145.585H191.874ZM195.933 143.66V144.775C195.768 144.516 195.505 144.359 195.176 144.359C194.617 144.359 194.197 144.82 194.197 145.47C194.197 146.124 194.617 146.584 195.176 146.584C195.505 146.584 195.768 146.428 195.933 146.165V146.535H196.336V143.66H195.933ZM195.275 146.23C194.884 146.23 194.609 145.914 194.609 145.47C194.609 145.026 194.884 144.713 195.275 144.713C195.657 144.713 195.933 145.026 195.933 145.47C195.933 145.914 195.657 146.23 195.275 146.23ZM197.921 146.222C197.555 146.222 197.296 145.967 197.243 145.614H198.916C198.916 144.853 198.542 144.359 197.892 144.359C197.304 144.359 196.831 144.828 196.831 145.466C196.831 146.119 197.333 146.584 197.925 146.584C198.226 146.584 198.596 146.457 198.785 146.255L198.53 145.992C198.402 146.124 198.143 146.222 197.921 146.222ZM197.909 144.721C198.275 144.721 198.476 144.96 198.522 145.289H197.247C197.313 144.943 197.58 144.721 197.909 144.721ZM200.47 144.359C200.182 144.359 199.923 144.507 199.795 144.717V144.409H199.388V146.535H199.795V145.157C199.828 144.906 200.083 144.713 200.379 144.713C200.667 144.713 200.869 144.935 200.869 145.252V146.535H201.268V145.182C201.268 144.701 200.939 144.359 200.47 144.359ZM203.314 144.409V145.786C203.281 146.037 203.026 146.23 202.73 146.23C202.442 146.23 202.241 146.008 202.241 145.692V144.409H201.842V145.762C201.842 146.243 202.171 146.584 202.64 146.584C202.928 146.584 203.187 146.436 203.314 146.226V146.535H203.721V144.409H203.314ZM205.928 144.409V144.75C205.768 144.511 205.496 144.359 205.176 144.359C204.616 144.359 204.209 144.775 204.209 145.367C204.209 145.959 204.616 146.379 205.176 146.379C205.496 146.379 205.76 146.235 205.928 145.992V146.3C205.928 146.671 205.653 146.888 205.196 146.888C204.941 146.888 204.686 146.802 204.53 146.654L204.37 146.958C204.571 147.123 204.9 147.242 205.258 147.242C205.887 147.242 206.335 146.856 206.335 146.309V144.409H205.928ZM205.278 146.025C204.9 146.025 204.633 145.753 204.633 145.367C204.633 144.984 204.9 144.713 205.278 144.713C205.657 144.713 205.928 144.984 205.928 145.367C205.928 145.753 205.657 146.025 205.278 146.025ZM207.835 144.359C207.601 144.359 207.333 144.421 207.029 144.573L207.177 144.873C207.362 144.779 207.568 144.697 207.777 144.697C208.201 144.697 208.324 144.98 208.324 145.248V145.313C208.119 145.243 207.893 145.198 207.683 145.198C207.214 145.198 206.831 145.482 206.831 145.906C206.831 146.321 207.165 146.584 207.617 146.584C207.876 146.584 208.168 146.465 208.324 146.243V146.535H208.723V145.248C208.723 144.721 208.407 144.359 207.835 144.359ZM207.695 146.263C207.428 146.263 207.222 146.124 207.222 145.893C207.222 145.663 207.461 145.503 207.744 145.503C207.954 145.503 208.152 145.531 208.324 145.585V145.869C208.254 146.132 207.958 146.263 207.695 146.263ZM143.615 151.584C144.08 151.584 144.421 151.329 144.421 150.926C144.421 150.503 144.047 150.387 143.697 150.285C143.34 150.174 143.208 150.124 143.208 149.96C143.208 149.799 143.373 149.709 143.582 149.709C143.767 149.709 143.981 149.779 144.187 149.906L144.368 149.606C144.138 149.454 143.858 149.359 143.582 149.359C143.13 149.359 142.805 149.614 142.809 150.005C142.809 150.35 143.052 150.49 143.541 150.626C143.804 150.7 144.022 150.762 144.022 150.959C144.022 151.124 143.858 151.235 143.619 151.235C143.369 151.235 143.126 151.14 142.9 150.975L142.706 151.267C142.961 151.473 143.303 151.584 143.615 151.584ZM145.89 151.152C145.844 151.198 145.762 151.23 145.672 151.23C145.552 151.23 145.454 151.124 145.454 150.975V149.754H145.955V149.409H145.454V148.825H145.055V149.409H144.734V149.754H145.055V151.004C145.055 151.346 145.285 151.584 145.614 151.584C145.766 151.584 145.923 151.527 146.038 151.432L145.89 151.152ZM146.88 149.816V149.409H146.473V151.535H146.88V150.326C146.917 149.956 147.23 149.713 147.67 149.713V149.359C147.304 149.359 147.016 149.536 146.88 149.816ZM149.042 151.222C148.676 151.222 148.417 150.967 148.363 150.614H150.037C150.037 149.853 149.663 149.359 149.013 149.359C148.425 149.359 147.952 149.828 147.952 150.466C147.952 151.119 148.454 151.584 149.046 151.584C149.346 151.584 149.716 151.457 149.905 151.255L149.65 150.992C149.523 151.124 149.264 151.222 149.042 151.222ZM149.029 149.721C149.395 149.721 149.597 149.96 149.642 150.289H148.367C148.433 149.943 148.7 149.721 149.029 149.721ZM151.484 151.222C151.118 151.222 150.858 150.967 150.805 150.614H152.479C152.479 149.853 152.104 149.359 151.455 149.359C150.867 149.359 150.394 149.828 150.394 150.466C150.394 151.119 150.895 151.584 151.488 151.584C151.788 151.584 152.158 151.457 152.347 151.255L152.092 150.992C151.965 151.124 151.706 151.222 151.484 151.222ZM151.471 149.721C151.837 149.721 152.039 149.96 152.084 150.289H150.809C150.875 149.943 151.142 149.721 151.471 149.721ZM153.946 151.152C153.901 151.198 153.818 151.23 153.728 151.23C153.609 151.23 153.51 151.124 153.51 150.975V149.754H154.012V149.409H153.51V148.825H153.111V149.409H152.79V149.754H153.111V151.004C153.111 151.346 153.341 151.584 153.67 151.584C153.822 151.584 153.979 151.527 154.094 151.432L153.946 151.152ZM154.714 152.098C154.978 151.798 155.072 151.621 155.072 151.428C155.072 151.202 154.957 151.037 154.776 151.037C154.62 151.037 154.501 151.165 154.501 151.309C154.501 151.461 154.62 151.584 154.768 151.584C154.735 151.712 154.661 151.843 154.542 151.967L154.714 152.098ZM157.016 149.055C157.147 149.055 157.258 148.94 157.258 148.808C157.258 148.681 157.147 148.566 157.016 148.566C156.876 148.566 156.769 148.681 156.769 148.808C156.769 148.94 156.876 149.055 157.016 149.055ZM156.81 151.535H157.217V149.409H156.81V151.535ZM158.986 149.359C158.657 149.359 158.394 149.516 158.23 149.775V148.66H157.827V151.535H158.23V151.165C158.394 151.428 158.657 151.584 158.986 151.584C159.546 151.584 159.965 151.124 159.965 150.47C159.965 149.82 159.546 149.359 158.986 149.359ZM158.888 151.23C158.505 151.23 158.23 150.914 158.23 150.47C158.23 150.026 158.505 149.713 158.888 149.713C159.278 149.713 159.554 150.026 159.554 150.47C159.554 150.914 159.278 151.23 158.888 151.23ZM161.349 149.359C161.115 149.359 160.847 149.421 160.543 149.573L160.691 149.873C160.876 149.779 161.082 149.697 161.291 149.697C161.715 149.697 161.838 149.98 161.838 150.248V150.313C161.633 150.243 161.407 150.198 161.197 150.198C160.728 150.198 160.346 150.482 160.346 150.906C160.346 151.321 160.679 151.584 161.131 151.584C161.39 151.584 161.682 151.465 161.838 151.243V151.535H162.237V150.248C162.237 149.721 161.921 149.359 161.349 149.359ZM161.209 151.263C160.942 151.263 160.736 151.124 160.736 150.893C160.736 150.663 160.975 150.503 161.259 150.503C161.468 150.503 161.666 150.531 161.838 150.585V150.869C161.769 151.132 161.472 151.263 161.209 151.263ZM163.254 149.816V149.409H162.847V151.535H163.254V150.326C163.291 149.956 163.603 149.713 164.043 149.713V149.359C163.677 149.359 163.39 149.536 163.254 149.816ZM165.333 149.359C165.099 149.359 164.831 149.421 164.527 149.573L164.675 149.873C164.86 149.779 165.066 149.697 165.275 149.697C165.699 149.697 165.822 149.98 165.822 150.248V150.313C165.617 150.243 165.391 150.198 165.181 150.198C164.712 150.198 164.33 150.482 164.33 150.906C164.33 151.321 164.663 151.584 165.115 151.584C165.374 151.584 165.666 151.465 165.822 151.243V151.535H166.221V150.248C166.221 149.721 165.905 149.359 165.333 149.359ZM165.193 151.263C164.926 151.263 164.72 151.124 164.72 150.893C164.72 150.663 164.959 150.503 165.243 150.503C165.452 150.503 165.65 150.531 165.822 150.585V150.869C165.752 151.132 165.456 151.263 165.193 151.263ZM166.728 150.597H167.813V150.227H166.728V150.597ZM169.303 151.222C168.937 151.222 168.678 150.967 168.624 150.614H170.298C170.298 149.853 169.924 149.359 169.274 149.359C168.686 149.359 168.213 149.828 168.213 150.466C168.213 151.119 168.715 151.584 169.307 151.584C169.607 151.584 169.977 151.457 170.166 151.255L169.911 150.992C169.784 151.124 169.525 151.222 169.303 151.222ZM169.29 149.721C169.656 149.721 169.858 149.96 169.903 150.289H168.628C168.694 149.943 168.961 149.721 169.29 149.721ZM172.653 151.535L171.843 150.445L172.616 149.409H172.164L171.617 150.141L171.074 149.409H170.614L171.391 150.449L170.581 151.535H171.033L171.617 150.753L172.197 151.535H172.653ZM174.235 149.359C173.906 149.359 173.643 149.516 173.479 149.775V149.409H173.076V152.242H173.479V151.165C173.643 151.428 173.906 151.584 174.235 151.584C174.795 151.584 175.214 151.124 175.214 150.47C175.214 149.82 174.795 149.359 174.235 149.359ZM174.137 151.23C173.754 151.23 173.479 150.914 173.479 150.47C173.479 150.026 173.754 149.713 174.137 149.713C174.527 149.713 174.803 150.026 174.803 150.47C174.803 150.914 174.527 151.23 174.137 151.23ZM176.133 149.816V149.409H175.726V151.535H176.133V150.326C176.17 149.956 176.483 149.713 176.923 149.713V149.359C176.557 149.359 176.269 149.536 176.133 149.816ZM178.295 151.222C177.929 151.222 177.67 150.967 177.616 150.614H179.29C179.29 149.853 178.916 149.359 178.266 149.359C177.678 149.359 177.205 149.828 177.205 150.466C177.205 151.119 177.707 151.584 178.299 151.584C178.599 151.584 178.969 151.457 179.158 151.255L178.903 150.992C178.776 151.124 178.517 151.222 178.295 151.222ZM178.282 149.721C178.648 149.721 178.85 149.96 178.895 150.289H177.62C177.686 149.943 177.953 149.721 178.282 149.721ZM180.531 151.584C180.996 151.584 181.337 151.329 181.337 150.926C181.337 150.503 180.963 150.387 180.613 150.285C180.255 150.174 180.124 150.124 180.124 149.96C180.124 149.799 180.288 149.709 180.498 149.709C180.683 149.709 180.897 149.779 181.102 149.906L181.283 149.606C181.053 149.454 180.774 149.359 180.498 149.359C180.046 149.359 179.721 149.614 179.725 150.005C179.725 150.35 179.967 150.49 180.457 150.626C180.72 150.7 180.938 150.762 180.938 150.959C180.938 151.124 180.774 151.235 180.535 151.235C180.284 151.235 180.041 151.14 179.815 150.975L179.622 151.267C179.877 151.473 180.218 151.584 180.531 151.584ZM182.579 151.584C183.044 151.584 183.385 151.329 183.385 150.926C183.385 150.503 183.011 150.387 182.661 150.285C182.304 150.174 182.172 150.124 182.172 149.96C182.172 149.799 182.336 149.709 182.546 149.709C182.731 149.709 182.945 149.779 183.151 149.906L183.332 149.606C183.101 149.454 182.822 149.359 182.546 149.359C182.094 149.359 181.769 149.614 181.773 150.005C181.773 150.35 182.016 150.49 182.505 150.626C182.768 150.7 182.986 150.762 182.986 150.959C182.986 151.124 182.822 151.235 182.583 151.235C182.332 151.235 182.09 151.14 181.863 150.975L181.67 151.267C181.925 151.473 182.267 151.584 182.579 151.584ZM184.397 151.535H184.771L185.285 149.956L185.795 151.535H186.169L186.885 149.409H186.47L185.984 150.992L185.458 149.409H185.113L184.586 150.992L184.097 149.409H183.681L184.397 151.535ZM188.188 149.359C187.954 149.359 187.687 149.421 187.382 149.573L187.53 149.873C187.715 149.779 187.921 149.697 188.131 149.697C188.554 149.697 188.678 149.98 188.678 150.248V150.313C188.472 150.243 188.246 150.198 188.036 150.198C187.567 150.198 187.185 150.482 187.185 150.906C187.185 151.321 187.518 151.584 187.97 151.584C188.229 151.584 188.521 151.465 188.678 151.243V151.535H189.077V150.248C189.077 149.721 188.76 149.359 188.188 149.359ZM188.049 151.263C187.781 151.263 187.576 151.124 187.576 150.893C187.576 150.663 187.814 150.503 188.098 150.503C188.308 150.503 188.505 150.531 188.678 150.585V150.869C188.608 151.132 188.312 151.263 188.049 151.263ZM190.04 152.275C190.344 152.271 190.57 152.111 190.722 151.728L191.66 149.409H191.236L190.591 151.087L189.908 149.409H189.472L190.385 151.547L190.278 151.773C190.208 151.897 190.118 151.938 189.986 151.938C189.904 151.938 189.809 151.917 189.727 151.872L189.637 152.185C189.748 152.242 189.896 152.275 190.04 152.275ZM191.839 152.098C192.102 151.798 192.197 151.621 192.197 151.428C192.197 151.202 192.082 151.037 191.901 151.037C191.744 151.037 191.625 151.165 191.625 151.309C191.625 151.461 191.744 151.584 191.892 151.584C191.859 151.712 191.785 151.843 191.666 151.967L191.839 152.098ZM193.939 151.535H194.342V148.66H193.939V151.535ZM195.827 149.359C195.593 149.359 195.325 149.421 195.021 149.573L195.169 149.873C195.354 149.779 195.56 149.697 195.769 149.697C196.193 149.697 196.316 149.98 196.316 150.248V150.313C196.111 150.243 195.884 150.198 195.675 150.198C195.206 150.198 194.823 150.482 194.823 150.906C194.823 151.321 195.157 151.584 195.609 151.584C195.868 151.584 196.16 151.465 196.316 151.243V151.535H196.715V150.248C196.715 149.721 196.399 149.359 195.827 149.359ZM195.687 151.263C195.42 151.263 195.214 151.124 195.214 150.893C195.214 150.663 195.453 150.503 195.736 150.503C195.946 150.503 196.144 150.531 196.316 150.585V150.869C196.246 151.132 195.95 151.263 195.687 151.263ZM198.92 149.409V149.75C198.76 149.511 198.488 149.359 198.168 149.359C197.608 149.359 197.201 149.775 197.201 150.367C197.201 150.959 197.608 151.379 198.168 151.379C198.488 151.379 198.752 151.235 198.92 150.992V151.3C198.92 151.671 198.645 151.888 198.188 151.888C197.933 151.888 197.678 151.802 197.522 151.654L197.362 151.958C197.563 152.123 197.892 152.242 198.25 152.242C198.879 152.242 199.327 151.856 199.327 151.309V149.409H198.92ZM198.27 151.025C197.892 151.025 197.625 150.753 197.625 150.367C197.625 149.984 197.892 149.713 198.27 149.713C198.649 149.713 198.92 149.984 198.92 150.367C198.92 150.753 198.649 151.025 198.27 151.025ZM200.942 151.584C201.547 151.584 202.057 151.074 202.057 150.47C202.057 149.865 201.547 149.359 200.942 149.359C200.333 149.359 199.819 149.865 199.819 150.47C199.819 151.074 200.333 151.584 200.942 151.584ZM200.942 151.23C200.551 151.23 200.226 150.885 200.226 150.47C200.226 150.058 200.551 149.713 200.942 149.713C201.325 149.713 201.649 150.058 201.649 150.47C201.649 150.885 201.325 151.23 200.942 151.23ZM203.302 151.584C203.767 151.584 204.108 151.329 204.108 150.926C204.108 150.503 203.734 150.387 203.384 150.285C203.026 150.174 202.895 150.124 202.895 149.96C202.895 149.799 203.059 149.709 203.269 149.709C203.454 149.709 203.668 149.779 203.874 149.906L204.055 149.606C203.824 149.454 203.545 149.359 203.269 149.359C202.817 149.359 202.492 149.614 202.496 150.005C202.496 150.35 202.739 150.49 203.228 150.626C203.491 150.7 203.709 150.762 203.709 150.959C203.709 151.124 203.545 151.235 203.306 151.235C203.055 151.235 202.813 151.14 202.586 150.975L202.393 151.267C202.648 151.473 202.989 151.584 203.302 151.584ZM206.527 151.584C206.992 151.584 207.333 151.329 207.333 150.926C207.333 150.503 206.959 150.387 206.609 150.285C206.251 150.174 206.12 150.124 206.12 149.96C206.12 149.799 206.284 149.709 206.494 149.709C206.679 149.709 206.893 149.779 207.098 149.906L207.279 149.606C207.049 149.454 206.769 149.359 206.494 149.359C206.042 149.359 205.717 149.614 205.721 150.005C205.721 150.35 205.963 150.49 206.453 150.626C206.716 150.7 206.934 150.762 206.934 150.959C206.934 151.124 206.769 151.235 206.531 151.235C206.28 151.235 206.037 151.14 205.811 150.975L205.618 151.267C205.873 151.473 206.214 151.584 206.527 151.584ZM208.801 151.152C208.756 151.198 208.674 151.23 208.583 151.23C208.464 151.23 208.365 151.124 208.365 150.975V149.754H208.867V149.409H208.365V148.825H207.966V149.409H207.646V149.754H207.966V151.004C207.966 151.346 208.197 151.584 208.526 151.584C208.678 151.584 208.834 151.527 208.949 151.432L208.801 151.152ZM210.257 149.359C210.022 149.359 209.755 149.421 209.451 149.573L209.599 149.873C209.784 149.779 209.989 149.697 210.199 149.697C210.623 149.697 210.746 149.98 210.746 150.248V150.313C210.54 150.243 210.314 150.198 210.104 150.198C209.636 150.198 209.253 150.482 209.253 150.906C209.253 151.321 209.586 151.584 210.039 151.584C210.298 151.584 210.59 151.465 210.746 151.243V151.535H211.145V150.248C211.145 149.721 210.828 149.359 210.257 149.359ZM210.117 151.263C209.849 151.263 209.644 151.124 209.644 150.893C209.644 150.663 209.882 150.503 210.166 150.503C210.376 150.503 210.573 150.531 210.746 150.585V150.869C210.676 151.132 210.38 151.263 210.117 151.263ZM212.729 151.152C212.684 151.198 212.601 151.23 212.511 151.23C212.392 151.23 212.293 151.124 212.293 150.975V149.754H212.795V149.409H212.293V148.825H211.894V149.409H211.573V149.754H211.894V151.004C211.894 151.346 212.124 151.584 212.453 151.584C212.606 151.584 212.762 151.527 212.877 151.432L212.729 151.152ZM214.267 151.222C213.901 151.222 213.641 150.967 213.588 150.614H215.262C215.262 149.853 214.888 149.359 214.238 149.359C213.65 149.359 213.177 149.828 213.177 150.466C213.177 151.119 213.678 151.584 214.271 151.584C214.571 151.584 214.941 151.457 215.13 151.255L214.875 150.992C214.748 151.124 214.489 151.222 214.267 151.222ZM214.254 149.721C214.62 149.721 214.822 149.96 214.867 150.289H213.592C213.658 149.943 213.925 149.721 214.254 149.721ZM215.989 151.584C216.137 151.584 216.256 151.457 216.256 151.304C216.256 151.165 216.137 151.037 215.989 151.037C215.832 151.037 215.713 151.165 215.713 151.304C215.713 151.457 215.832 151.584 215.989 151.584Z" fill="white"/>
</g>
<rect x="142.55" y="157.34" width="46.5341" height="11.784" rx="2.05622" fill="#EA3788"/>
<path d="M148.056 164.225C148.483 164.225 148.878 164.04 149.154 163.752L148.714 163.357C148.549 163.546 148.315 163.674 148.056 163.674C147.583 163.674 147.18 163.254 147.18 162.761C147.18 162.271 147.583 161.852 148.056 161.852C148.315 161.852 148.549 161.979 148.714 162.169L149.154 161.774C148.878 161.482 148.483 161.301 148.056 161.301C147.245 161.301 146.554 161.967 146.554 162.761C146.554 163.554 147.245 164.225 148.056 164.225ZM150.463 162C150.166 162 149.874 162.082 149.574 162.234L149.776 162.633C149.944 162.547 150.129 162.481 150.327 162.481C150.676 162.481 150.816 162.678 150.816 162.905V162.946C150.635 162.876 150.446 162.839 150.273 162.839C149.78 162.839 149.389 163.127 149.389 163.546C149.389 163.953 149.739 164.225 150.191 164.225C150.421 164.225 150.664 164.134 150.816 163.962V164.175H151.396V162.905C151.396 162.349 151.018 162 150.463 162ZM150.327 163.809C150.121 163.809 149.969 163.702 149.969 163.53C149.969 163.357 150.142 163.23 150.36 163.23C150.524 163.23 150.68 163.258 150.816 163.308V163.505C150.775 163.702 150.557 163.809 150.327 163.809ZM153.132 162C152.856 162 152.618 162.123 152.49 162.317V162.049H151.89V164.175H152.49V162.905L152.494 162.917C152.494 162.687 152.688 162.506 152.938 162.506C153.177 162.506 153.341 162.687 153.341 162.95V164.175H153.921V162.822C153.921 162.341 153.592 162 153.132 162ZM155.469 164.225C155.822 164.225 156.11 164.081 156.32 163.851L155.921 163.513C155.81 163.637 155.637 163.719 155.473 163.719C155.156 163.719 154.893 163.439 154.893 163.106C154.893 162.781 155.156 162.506 155.469 162.506C155.633 162.506 155.802 162.584 155.909 162.703L156.308 162.362C156.102 162.14 155.818 162 155.473 162C154.844 162 154.309 162.506 154.309 163.11C154.309 163.715 154.839 164.225 155.469 164.225ZM157.685 163.694C157.434 163.694 157.249 163.538 157.179 163.308H158.713C158.713 162.506 158.322 162 157.656 162C157.035 162 156.562 162.465 156.562 163.106C156.562 163.76 157.055 164.225 157.689 164.225C158.001 164.225 158.367 164.093 158.556 163.896L158.174 163.505C158.059 163.616 157.853 163.694 157.685 163.694ZM157.681 162.53C157.923 162.53 158.079 162.666 158.137 162.876H157.187C157.265 162.662 157.454 162.53 157.681 162.53ZM159.119 164.175H159.719V161.301H159.119V164.175ZM163.798 164.175L163.103 163.188C163.489 163.053 163.744 162.724 163.744 162.304C163.744 161.745 163.292 161.35 162.679 161.35H161.408V164.175H162.013V163.258H162.461L163.107 164.175H163.798ZM162.013 161.905H162.613C162.914 161.905 163.119 162.062 163.119 162.304C163.119 162.547 162.914 162.703 162.613 162.703H162.013V161.905ZM165.183 163.694C164.932 163.694 164.747 163.538 164.677 163.308H166.211C166.211 162.506 165.82 162 165.154 162C164.533 162 164.06 162.465 164.06 163.106C164.06 163.76 164.553 164.225 165.187 164.225C165.499 164.225 165.865 164.093 166.054 163.896L165.672 163.505C165.557 163.616 165.351 163.694 165.183 163.694ZM165.179 162.53C165.421 162.53 165.577 162.666 165.635 162.876H164.685C164.763 162.662 164.952 162.53 165.179 162.53ZM167.415 164.225C167.937 164.225 168.278 163.957 168.278 163.538C168.278 163.073 167.871 162.95 167.505 162.855C167.217 162.777 167.131 162.744 167.131 162.629C167.131 162.555 167.234 162.502 167.382 162.502C167.563 162.502 167.785 162.572 167.978 162.691L168.221 162.263C167.986 162.107 167.686 162 167.382 162C166.88 162 166.547 162.288 166.551 162.691C166.555 163.11 166.892 163.23 167.328 163.336C167.546 163.394 167.703 163.435 167.703 163.567C167.703 163.661 167.587 163.727 167.427 163.727C167.143 163.727 166.905 163.624 166.716 163.489L166.457 163.904C166.712 164.11 167.073 164.225 167.415 164.225ZM169.685 163.694C169.434 163.694 169.249 163.538 169.179 163.308H170.713C170.713 162.506 170.322 162 169.656 162C169.035 162 168.562 162.465 168.562 163.106C168.562 163.76 169.055 164.225 169.689 164.225C170.001 164.225 170.367 164.093 170.556 163.896L170.174 163.505C170.059 163.616 169.853 163.694 169.685 163.694ZM169.681 162.53C169.923 162.53 170.079 162.666 170.137 162.876H169.187C169.265 162.662 169.454 162.53 169.681 162.53ZM171.719 162.444V162.049H171.119V164.175H171.719V163.16C171.719 162.761 172.003 162.506 172.447 162.506V162C172.122 162 171.859 162.169 171.719 162.444ZM173.505 164.175H174.06L174.969 162.049H174.344L173.785 163.485L173.213 162.049H172.584L173.505 164.175ZM176.097 162C175.801 162 175.509 162.082 175.209 162.234L175.41 162.633C175.579 162.547 175.764 162.481 175.961 162.481C176.311 162.481 176.451 162.678 176.451 162.905V162.946C176.27 162.876 176.081 162.839 175.908 162.839C175.414 162.839 175.024 163.127 175.024 163.546C175.024 163.953 175.373 164.225 175.826 164.225C176.056 164.225 176.299 164.134 176.451 163.962V164.175H177.031V162.905C177.031 162.349 176.652 162 176.097 162ZM175.961 163.809C175.756 163.809 175.604 163.702 175.604 163.53C175.604 163.357 175.776 163.23 175.994 163.23C176.159 163.23 176.315 163.258 176.451 163.308V163.505C176.41 163.702 176.192 163.809 175.961 163.809ZM178.655 163.649C178.614 163.69 178.532 163.719 178.45 163.719C178.339 163.719 178.248 163.62 178.248 163.48V162.535H178.709V162.049H178.248V161.465H177.672V162.049H177.38V162.535H177.672V163.575C177.672 163.957 177.935 164.225 178.31 164.225C178.482 164.225 178.676 164.151 178.799 164.04L178.655 163.649ZM179.475 161.757C179.652 161.757 179.796 161.609 179.796 161.428C179.796 161.26 179.652 161.108 179.475 161.108C179.29 161.108 179.146 161.26 179.146 161.428C179.146 161.609 179.29 161.757 179.475 161.757ZM179.171 164.175H179.771V162.049H179.171V164.175ZM181.34 164.225C181.969 164.225 182.496 163.715 182.496 163.11C182.496 162.506 181.969 162 181.34 162C180.707 162 180.176 162.506 180.176 163.11C180.176 163.715 180.707 164.225 181.34 164.225ZM181.34 163.719C181.019 163.719 180.752 163.439 180.752 163.11C180.752 162.781 181.019 162.506 181.34 162.506C181.657 162.506 181.924 162.781 181.924 163.11C181.924 163.439 181.657 163.719 181.34 163.719ZM184.132 162C183.856 162 183.618 162.123 183.49 162.317V162.049H182.89V164.175H183.49V162.905L183.494 162.917C183.494 162.687 183.688 162.506 183.938 162.506C184.177 162.506 184.341 162.687 184.341 162.95V164.175H184.921V162.822C184.921 162.341 184.592 162 184.132 162Z" fill="white"/>
</g>
<path d="M230.453 152.05H232.099V153.697H233.745V155.342H225.519V153.697H227.164V150.405H230.456V152.05H230.453ZM251.839 166.854H253.482V165.209H251.839V166.854ZM232.098 152.05H233.744V150.405H232.098V152.05ZM255.125 166.854H256.772V165.209H255.125V166.854ZM235.39 168.499H238.679V166.853H235.39V168.499ZM250.193 168.499V166.853H248.546V168.499H250.193ZM243.613 168.499H245.259V165.208H243.613V168.499ZM230.453 147.115V148.76H235.388V147.115H230.453ZM228.81 148.759V147.114H225.518V150.405H227.163V148.759H228.81ZM233.744 145.468H222.229V133.955H233.744V145.468ZM232.098 135.601H223.873V143.824H232.098V135.601ZM225.518 165.209H230.452V160.274H225.518V165.209ZM241.967 163.562V165.209H243.615V163.562H241.967ZM230.453 137.246H225.519V142.179H230.453V137.246ZM256.771 133.955V145.47H245.257V133.955H256.771ZM255.125 135.601H246.902V143.824H255.125V135.601ZM222.227 156.982H233.742V168.496H222.227V156.982ZM223.874 166.854H232.099V158.628H223.874V166.854ZM223.874 147.115H222.227V155.341H223.874V147.115ZM245.257 155.339V156.982H246.902V155.339H245.257ZM240.322 161.919V160.274H238.677V161.92H235.389V165.212H238.677V166.858H240.322V163.566H241.968V161.92H240.322V161.919ZM235.39 140.536H238.679V138.888H235.39V140.536ZM248.547 153.696H251.84V155.341H253.484V150.407H251.84V147.115H250.193V152.05H245.261V153.697H246.906V155.342H248.552V153.697H248.547V153.696ZM250.193 158.628H248.546V156.982H246.901V160.274H241.967V161.92H245.26V165.212H246.905V166.858H248.551V163.566H255.129V161.92H250.195V158.628H250.193ZM250.193 158.628H251.84V155.339H250.193V158.628ZM237.033 158.628V156.982H238.676V155.339H240.32V153.693H241.967V150.401H246.901V147.109H245.255V148.755H243.61V142.175H241.965V138.883H243.61V133.954H241.965V137.245H240.319V133.954H235.385V137.245H237.031V135.599H238.674V138.888H240.319V143.823H241.965V145.468H240.319V148.759H238.674V145.468H237.031V143.824H235.385V147.115H237.031V148.76H235.385V153.697H237.031V150.405H238.674V153.697H237.031V155.342H235.385V160.274H238.674V158.628H237.033ZM255.125 160.274V158.628H251.837V160.274H255.125ZM253.48 137.246H248.547V142.179H253.48V137.246ZM240.322 158.628H243.615V156.982H241.967V155.339H240.32V158.628H240.322ZM243.613 155.339V153.693H241.966V155.339H243.613ZM253.48 148.759H256.772V147.114H253.48V148.759ZM255.125 161.919H256.772V160.274H255.125V161.919ZM255.125 152.05H256.772V150.405H255.125V152.05ZM240.322 143.824H238.677V145.47H240.322V143.824Z" fill="white"/>
</g>
<path fill-rule="evenodd" clip-rule="evenodd" d="M56.8547 124.848L89.2727 179.077L113.577 224.923H118.812L78.0898 124.848L56.8547 124.848Z" fill="#AA7545"/>
<path fill-rule="evenodd" clip-rule="evenodd" d="M110.376 222.807C109.888 224.11 109.644 225.086 109.644 225.733C109.644 226.52 109.775 227.669 110.037 229.179C110.95 229.179 119.152 229.179 134.644 229.179C135.283 227.064 134.914 225.922 133.536 225.753C132.159 225.585 131.014 225.432 130.103 225.297L118.666 220.195C118.446 220.097 118.188 220.196 118.09 220.416C118.088 220.42 118.087 220.423 118.085 220.427L117.35 222.212C116.075 222.807 115.038 223.105 114.241 223.105C113.593 223.105 112.698 222.843 111.557 222.319L111.557 222.319C111.119 222.118 110.601 222.311 110.4 222.749C110.391 222.768 110.383 222.787 110.376 222.807Z" fill="#0E79B2"/>
<path fill-rule="evenodd" clip-rule="evenodd" d="M106.827 217.582L116.922 214.526C112.499 201.296 107.078 186.736 100.659 170.847C94.2399 154.958 87.346 139.625 79.9773 124.848H51.4641C59.6565 143.541 68.3416 160.525 77.5193 175.802C86.697 191.079 96.4662 205.005 106.827 217.582Z" fill="#D52273"/>
<path fill-rule="evenodd" clip-rule="evenodd" d="M54.7243 124.848C51.6646 143.904 45.7634 168.251 45.2065 169.003C44.8352 169.503 31.4691 173.985 5.10818 182.447L6.23899 187.066C37.6743 182.528 54.2381 179.007 55.9302 176.503C58.4684 172.748 71.1421 143.079 76.0508 124.848H54.7243Z" fill="#AA7545"/>
<path fill-rule="evenodd" clip-rule="evenodd" d="M14.3745 178.454L16.3663 185.893C39.8781 187.957 54.2843 186.466 59.5848 181.421C64.8854 176.376 70.9266 157.518 77.7082 124.848H50.5192C46.2225 151.6 43.8204 165.538 43.3129 166.661C42.8053 167.784 33.1592 171.715 14.3745 178.454Z" fill="#EA3788"/>
<path fill-rule="evenodd" clip-rule="evenodd" d="M6.40021 180.523C5.03212 180.269 4.0295 180.198 3.39236 180.31C2.61744 180.447 1.50939 180.775 0.0682157 181.296C0.226639 182.195 1.65041 190.278 4.33954 205.542C6.53276 205.805 7.59282 205.243 7.5197 203.856C7.44659 202.469 7.39784 201.315 7.37345 200.394L10.4103 188.238C10.4687 188.004 10.3266 187.767 10.0928 187.709C10.0888 187.708 10.0848 187.707 10.0807 187.706L8.19658 187.291C7.38907 186.138 6.91611 185.169 6.77769 184.383C6.66524 183.745 6.76765 182.817 7.08494 181.602L7.08494 181.602C7.2067 181.135 6.92736 180.658 6.46102 180.537C6.44091 180.531 6.42063 180.527 6.40021 180.523Z" fill="#0E79B2"/>
<path fill-rule="evenodd" clip-rule="evenodd" d="M59.0114 68.313C57.0011 65.952 55.6405 63.0584 55.8678 59.8161C56.5229 50.4741 69.5196 52.5292 72.0478 57.2443C74.5759 61.9593 74.2755 73.9194 71.0081 74.7621C69.7051 75.0981 66.9292 74.2749 64.1041 72.571L65.8774 85.1238H55.4068L59.0114 68.313Z" fill="#AA7545"/>
<path fill-rule="evenodd" clip-rule="evenodd" d="M64.0445 62.3032C63.6641 62.1019 63.2282 61.9875 62.7649 61.9875C61.2814 61.9875 60.0789 63.1601 60.0789 64.6067C60.0789 65.1971 60.2792 65.7418 60.6172 66.1799C59.9808 67.2295 59.5464 68.3323 59.4041 69.466C57.1982 69.466 49.1474 61.1144 57.1675 53.2568C65.1876 45.3993 76.7777 56.6164 73.295 57.2705C71.2926 57.6467 67.2599 59.5594 64.0445 62.3032Z" fill="black"/>
<path fill-rule="evenodd" clip-rule="evenodd" d="M90.3282 114.425L102.687 126.488C106.283 128.023 109.229 129.718 111.526 131.573C112.042 132.196 112.605 133.39 110.175 132.856C107.744 132.321 105.164 131.869 104.708 132.659C104.251 133.45 105.597 134.662 104.753 135.697C104.19 136.387 102.297 134.192 99.0748 129.113L86.2234 121.532L90.3282 114.425ZM35.4725 116.126L44.5895 116.162C38.9602 134.345 35.9212 143.993 35.4725 145.106C34.463 147.609 36.5993 151.421 37.5128 153.47C34.5374 154.802 34.8545 149.869 31.1011 151.616C27.6751 153.211 25.069 156.101 21.1109 153.657C20.6242 153.356 20.091 152.225 21.3794 151.341C24.5894 149.139 29.2152 145.284 29.8402 144.016C30.6926 142.285 32.57 132.989 35.4725 116.126Z" fill="#AA7545"/>
<path fill-rule="evenodd" clip-rule="evenodd" d="M61.3816 77.8477L65.1541 77.2003C71.6491 93.435 82.9888 108.186 99.1731 121.454L86.9435 136.321C70.761 117.429 60.7862 97.9381 61.3816 77.8477Z" fill="#360F4F"/>
<path fill-rule="evenodd" clip-rule="evenodd" d="M44.9362 125.285H78.5294C70.7466 106.35 66.8552 90.2656 66.8552 77.0309L56.7218 75.5201C48.7579 88.336 46.5089 104.115 44.9362 125.285Z" fill="#D1D1D1"/>
<path fill-rule="evenodd" clip-rule="evenodd" d="M56.5073 75.5273C56.5086 75.5249 56.51 75.5225 56.5113 75.5201H57.1727C57.9642 75.5474 59.1698 75.5965 60.7894 75.6675L63.238 82.6692C63.497 91.2058 65.0096 108.409 67.7757 134.28H45.7547C45.8124 136.067 45.9076 137.87 46.0403 139.69H29.6666C32.1158 112.042 41.06 90.6521 56.4992 75.5201L56.5073 75.5273V75.5273Z" fill="#360F4F"/>
<path fill-rule="evenodd" clip-rule="evenodd" d="M47.2093 111.417C47.836 122.555 49.4051 130.234 51.9166 134.452H45.7604C45.4908 126.438 45.9738 118.76 47.2093 111.417V111.417Z" fill="black" fill-opacity="0.1"/>
<path fill-rule="evenodd" clip-rule="evenodd" d="M50.6562 120.919L61.5147 115.868V120.919H50.6562Z" fill="white" fill-opacity="0.2"/>
<ellipse cx="125.285" cy="233.108" rx="14.8421" ry="1.30959" fill="#ACACAC"/>
<defs>
<clipPath id="clip0">
<rect width="114.222" height="35.7946" fill="white" transform="translate(142.55 57.3726)"/>
</clipPath>
<clipPath id="clip1">
<rect width="75.5646" height="35.7946" fill="white" transform="translate(142.55 57.3726)"/>
</clipPath>
<clipPath id="clip2">
<rect width="75.5646" height="19.8982" fill="white" transform="translate(142.55 57.3726)"/>
</clipPath>
<clipPath id="clip3">
<rect width="66.6222" height="7.67153" fill="white" transform="translate(142.55 57.3726)"/>
</clipPath>
<clipPath id="clip4">
<rect width="7.67153" height="7.67153" fill="white" transform="translate(198.322 57.3726)"/>
</clipPath>
<clipPath id="clip5">
<rect width="114.222" height="35.7946" fill="white" transform="translate(142.55 133.329)"/>
</clipPath>
<clipPath id="clip6">
<rect width="75.5646" height="35.7946" fill="white" transform="translate(142.55 133.329)"/>
</clipPath>
<clipPath id="clip7">
<rect width="75.5646" height="19.8982" fill="white" transform="translate(142.55 133.329)"/>
</clipPath>
<clipPath id="clip8">
<rect width="66.6222" height="7.67153" fill="white" transform="translate(142.55 133.329)"/>
</clipPath>
<clipPath id="clip9">
<rect width="7.67153" height="7.67153" fill="white" transform="translate(198.322 133.329)"/>
</clipPath>
</defs>
</svg>
